<svg width="52" height="45" viewBox="0 0 52 45" fill="none" xmlns="http://www.w3.org/2000/svg">
<path d="M0.941104 20.6241C1.75644 22.1938 2.56183 23.7685 3.41451 25.3183C3.86513 26.1361 4.36927 26.9303 4.91698 27.6846C5.65639 28.7041 6.55887 29.5605 7.70284 30.1394C8.25677 30.4194 8.802 30.7232 9.32605 31.0568C9.48539 31.1576 9.66836 31.3979 9.65716 31.5609C9.56007 32.9426 10.063 34.2186 10.3244 35.5356C10.546 36.6521 10.8659 37.7413 11.0526 38.8753C11.2692 40.1886 11.609 41.5268 12.3098 42.7018C13.0007 43.8595 13.9691 44.5441 15.4094 44.34C16.0305 44.2516 16.628 44.1533 17.1994 43.852C18.2102 43.3193 19.2769 42.8973 20.218 42.2288C21.4242 41.3712 22.8246 40.9106 24.235 40.5981C25.1648 40.3927 26.0897 40.1849 26.8627 39.682C27.805 39.0683 28.9092 39.3322 29.8602 38.9102C30.556 39.0907 31.2706 39.2226 31.944 39.4666C32.6262 39.7131 33.2411 40.201 33.9344 40.3479C34.8494 40.5421 35.6684 41.0712 36.6443 41.0375C37.6065 41.0052 38.4281 40.4961 39.3455 40.3143C39.6343 40.2571 39.9094 40.0442 40.1522 39.8525C42.1463 38.2778 43.1334 36.1318 43.4397 33.6821C43.66 31.9269 43.6314 30.1468 43.3401 28.3867C42.897 27.534 43.3289 27.0162 44.0222 26.5979C44.5562 26.2755 45.089 25.9506 45.6243 25.6307C47.2351 24.671 48.7786 23.6229 50.1802 22.3644C50.8661 21.7482 51.074 21.0337 51.0678 20.1424C51.0578 18.7345 50.7093 17.4574 49.8242 16.3669C48.4213 14.6379 46.6151 13.4616 44.6309 12.462C43.0563 11.6691 41.4443 11.6156 39.775 11.6367C39.0393 11.6454 38.3298 11.7176 37.6538 12.0587C37.3875 12.1931 37.0526 12.1932 36.7501 12.2616C36.5199 12.3139 36.0618 12.0488 36.0082 11.8284C35.8128 11.0218 35.5688 10.2239 35.4406 9.4073C35.1543 7.59487 34.2904 6.08245 33.1091 4.73558C32.0025 3.4746 30.7602 2.37794 29.1955 1.69206C28.5295 1.40077 27.8934 1.04103 27.2387 0.721117C25.2619 -0.244844 25.2594 -0.24609 23.2043 0.783356C22.74 1.01613 22.2806 1.26011 21.83 1.51903C19.7176 2.73271 18.0147 4.40446 16.6952 6.42477C15.8426 7.73056 15.1753 9.15959 15.2388 10.8002C15.2426 10.9023 15.2164 11.0069 15.2002 11.1102C15.1666 11.3293 14.7148 11.6367 14.4982 11.6106C13.475 11.4874 12.5513 10.8239 11.4347 11.094C10.9443 11.094 10.3916 10.9795 9.90986 11.1152C8.2244 11.5907 6.43439 11.7699 4.96304 12.8815C3.96845 13.6321 2.90043 14.2832 1.88467 15.0064C1.46269 15.3064 1.04816 15.64 0.703355 16.0246C0.130749 16.6645 -0.16552 17.3628 0.0958869 18.2964C0.324929 19.0943 0.557707 19.8835 0.941104 20.6241Z" fill="#45556B"/>
<path d="M49.8267 16.3633C48.4238 14.6343 46.6176 13.4579 44.6334 12.4584C43.0587 11.6654 41.4467 11.6119 39.7774 11.6331C39.0418 11.6418 38.3322 11.714 37.6563 12.0551C37.3899 12.1895 37.055 12.1895 36.7526 12.258C36.5223 12.3102 36.0642 12.0451 36.0107 11.8248C35.8153 11.0181 35.5712 10.2202 35.443 9.40364C35.1567 7.59122 34.2929 6.07879 33.1115 4.73192C32.0049 3.47095 30.7626 2.37428 29.1979 1.68839C28.5319 1.39711 27.8958 1.03737 27.2411 0.717455C25.2644 -0.248506 25.2619 -0.249752 23.2067 0.779694C22.7424 1.01247 22.2831 1.25645 21.8324 1.51537C19.72 2.72904 18.0172 4.40081 16.6977 6.42111C15.845 7.7269 15.1778 9.15592 15.2413 10.7966C15.245 10.8986 15.2188 11.0032 15.2027 11.1065C15.1691 11.3256 14.7172 11.6331 14.5006 11.6069C13.4774 11.4837 12.5537 10.8202 11.4372 11.0903C10.9467 11.0903 10.394 10.9758 9.91228 11.1115C8.22683 11.587 6.43682 11.7663 4.96547 12.8779C3.97088 13.6285 2.90285 14.2795 1.8871 15.0027C1.46511 15.3027 1.05059 15.6363 0.705781 16.021C0.133175 16.6608 -0.163076 17.3591 0.0983313 18.2927C0.323639 19.0981 0.55641 19.8873 0.939807 20.6267C1.75515 22.1964 2.56053 23.7711 3.41321 25.3208C3.86383 26.1387 4.36797 26.9328 4.91568 27.6872C5.65509 28.7067 6.55756 29.5631 7.70152 30.1419C8.25546 30.422 8.80068 30.7257 9.32474 31.0593C9.48407 31.1602 9.66707 31.4004 9.65586 31.5635C9.55877 32.9452 10.0617 34.2211 10.3231 35.5381C10.5446 36.6547 10.8646 37.7439 11.0513 38.8779C11.2679 40.1912 11.6077 41.5293 12.3085 42.7044C12.9994 43.8621 13.9678 44.5467 15.4081 44.3426C16.0292 44.2542 16.6267 44.1558 17.1981 43.8546C18.2089 43.3218 19.2756 42.8998 20.2167 42.2314C21.4229 41.3737 22.8233 40.9131 24.2337 40.6007C25.1635 40.3953 26.0884 40.1874 26.8614 39.6845C27.8037 39.0708 28.9079 39.3347 29.8589 38.9128C30.5547 39.0933 31.2693 39.2252 31.9427 39.4692C32.6248 39.7156 33.2398 40.2036 33.9331 40.3505C34.848 40.5447 35.6671 41.0737 36.643 41.0401C37.6053 41.0077 38.4268 40.4986 39.3442 40.3169C39.633 40.2596 39.9081 40.0468 40.1509 39.8551C42.145 38.2804 43.1321 36.1344 43.4384 33.6846C43.6587 31.9295 43.6301 30.1494 43.3388 28.3893C42.8956 27.5366 43.3276 27.0187 44.0209 26.6005C44.555 26.2781 45.0877 25.9532 45.623 25.6333C47.2337 24.6735 48.7773 23.6254 50.1789 22.3669C50.8648 21.7508 51.0727 21.0363 51.0665 20.145C51.0603 18.7296 50.7117 17.4525 49.8267 16.3633ZM46.935 15.0239L46.9947 15.1845L46.8317 15.1571L46.935 15.0239ZM45.6404 14.2882C45.6728 14.3442 45.6728 14.4625 45.6342 14.5036C45.5732 14.5683 45.4636 14.6355 45.3815 14.628C44.7217 14.5708 44.352 14.1737 44.1566 13.5849C44.7429 13.6173 45.3081 13.7032 45.6404 14.2882ZM16.928 8.09909C17.2018 7.54267 17.447 6.94641 17.8379 6.47837C18.5686 5.60079 19.3765 4.78296 20.1856 3.97509C21.1503 3.01286 22.2607 2.26225 23.5104 1.69338C25.1237 0.958946 25.0565 0.924094 26.7033 1.75811C28.0888 2.45893 29.4805 3.13858 30.724 4.12197C32.5004 5.52735 33.6692 7.30242 34.4485 9.37999C34.5555 9.66753 34.619 9.98247 34.6364 10.2887C34.7124 11.643 34.7173 12.9799 34.1634 14.2745C33.7987 15.1285 33.597 16.0521 33.251 16.916C33.0692 17.3703 32.7767 17.7961 32.2464 17.9429C32.2228 18.1384 32.2352 18.3512 32.1531 18.5193C31.5431 19.7715 30.9705 20.4661 29.8713 21.2927C29.5303 21.5491 29.2701 21.8553 29.1369 22.2537C29.0074 22.642 28.9527 23.0603 28.7871 23.4312C28.4958 24.0872 28.217 24.7719 27.571 25.1752C27.4303 25.2623 27.1925 25.2785 27.032 25.2262C26.8004 25.1503 26.8054 24.9499 26.9822 24.7345C27.0457 24.6574 27.0892 24.5528 27.1066 24.4545C27.1602 24.1632 27.1975 23.8694 27.2398 23.5769C27.3257 23.5458 27.4203 23.5234 27.4714 23.4624C27.9456 22.9034 28.1971 22.2288 28.3851 21.5367C28.4635 21.2466 28.4423 20.9168 28.4037 20.613C28.3838 20.4624 28.2195 20.3305 28.1212 20.191C28.0514 20.2657 27.9481 20.3292 27.9208 20.4176C27.8598 20.6143 27.8709 20.8383 27.7875 21.0213C27.7266 21.157 27.5647 21.2466 27.4477 21.3574C27.3892 21.2715 27.2909 21.1906 27.2797 21.0997C27.2311 20.689 27.2162 20.2732 27.1701 19.8624C27.1602 19.7728 27.0867 19.6769 27.0195 19.6072C26.8926 19.4778 26.717 19.5599 26.6934 19.8425C26.6249 20.6591 26.6037 21.4806 26.5639 22.2997C26.2838 22.413 26.0648 22.6171 26.0287 22.9047C25.9241 23.735 25.6565 24.4769 25.054 25.0769C24.9855 25.0271 24.8797 24.9922 24.8536 24.9262C24.4142 23.791 23.9075 22.6732 23.5826 21.5055C23.3648 20.7238 23.1457 19.9471 22.9079 19.1703C22.7337 18.6002 22.8171 17.9541 22.7449 17.3467C22.71 17.0542 22.5221 16.84 22.237 16.733C22.2283 17.5272 22.2233 18.3226 22.2034 19.1168C22.2009 19.2039 22.0777 19.3695 22.059 19.3632C21.9071 19.3085 21.7217 19.2562 21.6333 19.1379C21.4503 18.8952 21.2138 18.6226 21.1876 18.3438C21.0706 17.1164 20.269 16.0782 20.2789 14.8185C20.2877 13.7866 19.7225 12.9152 19.4723 11.9866C19.1163 11.9953 18.8101 12.3177 18.6035 11.9293C18.5201 11.7712 18.5437 11.5459 18.5549 11.353C18.5599 11.2609 18.6408 11.1688 18.7006 11.0866C18.9532 10.7356 19.0914 10.3733 18.8101 9.97251C18.5113 9.54804 18.4491 9.06381 18.4254 8.56713C18.0259 8.55469 17.6225 8.5634 17.2279 8.50988C17.0064 8.48125 16.8495 8.25967 16.928 8.09909ZM34.0775 19.1379C33.6369 18.9014 33.6356 18.8765 34.075 18.6027C34.0762 18.7807 34.0763 18.9599 34.0775 19.1379ZM28.9029 25.7428L28.746 25.8001L28.7685 25.6482L28.9029 25.7428ZM26.6237 22.3545C26.9149 22.4566 27.0718 22.6806 27.1278 22.9794C27.1614 23.1561 27.1714 23.3366 27.1876 23.5171C26.666 23.2943 26.6486 22.8225 26.6237 22.3545ZM19.4885 15.0202C19.4561 15.0488 19.3341 15.0289 19.2968 14.9903C19.2333 14.9231 19.1798 14.8272 19.1648 14.7376C19.1387 14.572 19.1337 14.404 19.1238 14.2359C19.2719 14.3218 19.435 14.3965 19.5433 14.5173C19.6852 14.6778 19.6453 14.8807 19.4885 15.0202ZM19.0491 14.1426C18.8425 14.1251 18.7491 14.033 18.7815 13.8575C18.8449 13.8799 18.9358 13.8849 18.9657 13.9297C19.008 13.9907 19.0267 14.0679 19.0491 14.1426ZM17.762 10.2949C17.6773 10.4443 17.5902 10.5986 17.5018 10.7518C17.4184 10.5812 17.3238 10.4157 17.2578 10.2389C17.2267 10.1543 17.223 10.0348 17.2591 9.95384C17.3338 9.78455 17.4445 9.63268 17.5391 9.4721C17.6126 9.64637 17.6985 9.81816 17.7558 9.99865C17.7844 10.0883 17.762 10.1928 17.762 10.2949ZM16.0603 11.0866C16.0666 10.997 16.135 10.8986 16.2022 10.8314C16.3006 10.7343 16.44 10.8252 16.496 11.0903C16.557 11.3804 16.5595 11.6841 16.5869 11.9779C16.5284 12.365 16.6591 12.7857 16.3628 13.1194C16.3379 13.148 16.2135 13.1443 16.1973 13.1181C15.7977 12.4671 16.0155 11.77 16.0603 11.0866ZM7.45008 27.7308C7.39033 27.615 7.33058 27.4992 7.27083 27.3835C7.38785 27.442 7.50611 27.5005 7.62312 27.559C7.56586 27.6162 7.50859 27.6735 7.45008 27.7308ZM8.1982 28.9482L8.05878 28.8498L8.22559 28.805L8.1982 28.9482ZM9.43179 28.3332L9.2874 28.2349L9.45669 28.1839L9.43179 28.3332ZM10.0057 27.132C9.78782 27.1382 9.69196 26.9328 9.71437 26.7038C9.91229 26.7075 10.109 26.71 10.3069 26.7138C10.2982 26.9279 10.2023 27.127 10.0057 27.132ZM10.3318 26.664C10.053 26.1399 10.0318 26.1436 9.70316 26.6702C8.84923 26.4063 8.84426 26.4088 7.76751 26.6329C7.58826 26.6702 7.40403 26.6876 7.22229 26.7113C7.20735 26.9017 7.19116 27.0934 7.17622 27.2839C6.65092 27.2963 6.18289 27.1295 5.80447 26.7673C5.50697 26.4822 5.18455 26.1934 4.98663 25.8412C3.76922 23.6802 2.57547 21.5068 1.39665 19.3247C1.20495 18.9686 1.07549 18.5616 1.00703 18.162C0.89624 17.5185 1.01947 16.8961 1.59706 16.5064C2.19083 16.1056 2.8294 15.7733 3.4493 15.411C3.61611 15.1745 3.75429 14.9019 3.96839 14.7239C4.28208 14.4625 4.65179 14.2621 5.01278 14.0642C8.2144 12.3053 9.49653 12.0326 13.023 12.3613C13.445 12.4011 13.8247 12.5592 14.1384 12.8492C14.8243 13.4816 15.4603 14.1488 16.0081 14.9156C16.4238 15.4969 16.908 16.1006 17.5018 16.4703C19.2408 17.5521 20.2578 19.2724 21.4179 20.8309C22.3964 22.1454 23.0698 23.6889 23.8528 25.1453C24.1179 25.6383 24.0158 26.1437 23.7158 26.6092C23.5515 26.8656 23.198 27.0772 22.9478 26.9801C21.8337 26.5445 20.7445 26.6042 19.6142 26.9689C18.9346 27.188 18.2014 27.2926 17.4856 27.3299C16.562 27.3785 15.6321 27.31 14.7048 27.2913C14.5641 27.0138 14.3363 26.8121 14.04 26.7772C13.4376 26.7063 12.8289 26.6938 12.2214 26.6602C12.1504 26.4051 11.9899 26.2121 11.7297 26.1673C11.3326 26.1001 11.0949 26.3279 10.9442 26.664C10.7413 26.664 10.5359 26.664 10.3318 26.664ZM14.6637 27.3387C14.5728 27.4905 14.4994 27.6772 14.3662 27.742C14.2317 27.8067 14.0176 27.7084 13.8396 27.681C13.8521 27.615 13.8409 27.5241 13.8807 27.4893C13.9504 27.4283 14.0475 27.3772 14.1384 27.3648C14.3114 27.3436 14.4882 27.3436 14.6637 27.3387ZM12.199 26.715C12.3073 26.9714 12.4193 27.2254 12.5152 27.4868C12.5388 27.5515 12.5176 27.6996 12.494 27.7046C12.3098 27.7457 12.082 27.8391 11.9388 27.7694C11.4894 27.549 11.126 27.2216 10.9841 26.7125C11.3899 26.7138 11.7944 26.7138 12.199 26.715ZM11.9537 28.9146L11.7695 28.8909L11.8791 28.759L11.9537 28.9146ZM17.5765 42.1007C17.5367 42.1131 17.4582 41.9974 17.3972 41.9413C17.5367 41.8741 17.6761 41.8057 17.8155 41.7384C17.823 41.914 17.7495 42.0472 17.5765 42.1007ZM19.1773 41.1596C18.8176 41.5467 18.3918 41.7223 17.8765 41.6799C18.2051 40.8024 18.8387 40.231 19.6827 39.8688C19.7474 40.3841 19.5221 40.7874 19.1773 41.1596ZM22.4013 39.3347C22.1835 39.5501 21.9607 39.7642 21.7142 39.9447C21.4603 40.1314 21.1976 40.1439 20.8727 40.0169C20.5242 39.8812 20.1308 39.8613 19.7524 39.8028C19.7922 39.7144 19.8246 39.6036 19.8881 39.58C20.6462 39.2974 21.4092 39.0298 22.176 38.7733C22.2519 38.7484 22.3764 38.8045 22.4536 38.8592C22.6055 38.9675 22.5905 39.148 22.4013 39.3347ZM21.0358 37.3954C21.1528 37.4551 21.2698 37.5136 21.3868 37.5734C21.3271 37.6294 21.2673 37.6854 21.2063 37.7414C21.1503 37.6256 21.093 37.5111 21.0358 37.3954ZM22.2532 35.4809C22.4636 35.5082 22.5606 35.6004 22.532 35.7659C22.4623 35.7448 22.3627 35.7448 22.3304 35.6974C22.288 35.6365 22.2719 35.558 22.2532 35.4809ZM24.3146 31.8361C23.9635 32.4747 23.6673 33.1444 23.2876 33.7643C23.1395 34.007 22.832 34.1552 22.5968 34.3444C22.2407 34.6294 22.2134 35.034 22.1847 35.4385C21.3395 35.7734 20.9885 36.4418 20.9387 37.3132C20.4096 37.4812 20.3947 38.1236 19.974 38.3937C19.6267 38.6165 19.2408 38.797 18.9458 39.0746C17.9674 39.9957 17.035 40.9642 16.0591 41.8866C15.6881 42.2364 15.2574 42.5289 14.833 42.8152C14.4832 43.0517 13.7537 42.743 13.5571 42.2837C13.4786 42.1007 13.4674 41.8903 13.4288 41.6924C13.277 41.5816 13.0753 41.4845 13.0417 41.3451C12.7728 40.2385 12.3434 39.1854 12.2102 38.0277C12.0571 36.697 11.6724 35.3887 11.2206 34.1166C11.0052 33.5128 11.009 32.8917 10.994 32.2668C10.9679 31.1639 11.7359 30.5116 12.5226 30.0996C12.7031 30.005 12.9098 29.9378 13.1114 29.9067C14.7645 29.6502 16.3305 29.0602 17.8889 28.5125C19.2047 28.0494 20.5092 27.8826 21.8661 27.9187C22.1648 27.9262 22.5096 28.0083 22.7486 28.1764C23.4208 28.6494 24.0482 29.1834 24.6718 29.6776C24.7453 30.4544 24.683 31.1664 24.3146 31.8361ZM24.4428 27.559C24.622 27.4831 24.7963 27.3623 24.9805 27.3436C25.2743 27.3138 25.5768 27.3411 25.8731 27.3685C25.9602 27.376 26.0623 27.4469 26.117 27.5191C26.2104 27.6411 26.1058 27.7594 25.8469 27.8241C25.7511 27.8478 25.649 27.8503 25.5444 27.8627C25.3502 27.8515 25.1424 27.8714 24.9544 27.8204C24.7739 27.7706 24.6133 27.6486 24.4428 27.559ZM26.595 36.6086C26.4121 36.6086 26.1967 36.4991 26.0523 36.3746C25.7311 36.0958 25.5407 35.7199 25.4884 35.2979C25.3116 33.8489 25.3453 32.3987 25.5208 30.951C25.5307 30.8689 25.654 30.7257 25.6639 30.7307C25.8444 30.8203 26.0722 30.8901 26.1768 31.0419C26.3473 31.2896 26.4892 31.5822 26.5477 31.8747C26.6498 32.3875 26.651 32.9315 26.4108 33.4021C26.122 33.9647 26.5602 34.0829 26.8639 34.2995C27.083 34.4564 27.0494 34.6058 26.9523 34.8448C26.6548 35.5804 26.6722 35.6066 27.2037 36.0609C27.154 36.4145 26.9237 36.6086 26.595 36.6086ZM27.2311 36.0584C27.2013 35.8443 27.2784 35.6813 27.4851 35.6153C27.5299 35.6016 27.6905 35.7584 27.678 35.7921C27.6046 35.9912 27.4415 36.0734 27.2311 36.0584ZM28.4373 34.1228C27.7029 33.5937 27.7029 33.4232 28.4398 32.9975C28.4386 33.3722 28.4373 33.7481 28.4373 34.1228ZM28.5182 34.241C28.7199 34.2933 28.8195 34.3892 28.8045 34.5311C28.7386 34.5049 28.6477 34.4962 28.6116 34.4477C28.5693 34.3867 28.5444 34.3132 28.5182 34.241ZM29.346 37.1091C29.2004 37.1738 28.9851 37.0829 28.8008 37.0593C28.822 36.9983 28.8245 36.9124 28.8668 36.8825C28.9465 36.8265 29.046 36.7842 29.1419 36.7717C29.3137 36.7481 29.488 36.7418 29.6622 36.7306C29.5651 36.8763 29.4805 37.0493 29.346 37.1091ZM30.2336 36.6609C30.078 36.6684 29.9224 36.6684 29.7668 36.6709C29.8253 36.4207 29.9784 36.2352 30.2224 36.1742C30.4514 36.1157 30.6966 36.1194 30.9369 36.1033C30.8547 36.4667 30.6083 36.641 30.2336 36.6609ZM29.9971 35.1136C30.0344 35.0626 30.0618 34.9954 30.1116 34.963C30.1664 34.9269 30.2298 34.9045 30.2921 34.8796C30.2211 35.0502 30.124 35.1323 29.9971 35.1136ZM31.6402 37.7576C31.5531 37.7613 31.4497 37.7165 31.3763 37.6642C31.222 37.5522 31.263 37.4041 31.4286 37.2049C31.6302 36.9634 31.8618 36.8066 32.1817 36.8302C32.4107 36.8476 32.5315 36.9671 32.5489 37.1489C32.4506 37.5049 32.1145 37.7364 31.6402 37.7576ZM33.6841 38.2767L33.7937 38.141L33.8684 38.3003L33.6841 38.2767ZM38.3696 39.0385C37.4783 38.8182 36.597 38.553 35.7069 38.3016C35.7443 37.9281 35.9484 37.5236 35.5638 37.1949C35.4057 37.0605 35.2489 36.9248 35.0983 36.7842C34.6302 36.3472 34.1061 36.0547 33.4389 36.0609C32.636 36.0684 31.8319 36.0535 31.0278 36.0472C31.1485 35.7584 31.38 35.5593 31.6726 35.5506C32.6024 35.5219 33.5348 35.5207 34.4646 35.5643C34.7534 35.578 35.0459 35.746 35.3148 35.8867C35.4941 35.98 35.6472 36.1344 35.7891 36.2837C36.6493 37.1875 37.5965 37.9767 38.6969 38.5767C38.7779 38.6202 38.8139 38.7435 38.8724 38.8306C38.7032 38.904 38.5115 39.0733 38.3696 39.0385ZM40.8616 36.7754C40.6488 37.1676 40.2803 37.3319 39.8446 37.3592C38.9882 37.414 38.1978 37.2671 37.5629 36.631C37.4173 36.4854 37.2418 36.3647 37.1123 36.2066C36.2895 35.197 35.1791 34.7203 33.948 34.4203C33.4277 34.2933 32.9248 34.2049 32.4468 34.4514C31.7784 34.795 31.0639 34.7377 30.3593 34.7875C30.0742 33.834 29.3821 33.2875 28.4971 32.9365C28.4834 32.7398 28.4946 32.5357 28.4386 32.3527C28.3328 32.0054 28.0963 31.9805 27.7539 32.0689C27.3818 32.1647 27.1901 31.9257 27.2847 31.5598C27.3569 31.2822 27.4577 31.012 27.5423 30.7519C27.0917 30.4282 26.6635 30.1494 26.2689 29.8295C25.9589 29.5768 26.0299 28.9644 26.3635 28.7727C26.6299 28.6208 26.9037 28.4801 27.1739 28.3332C27.5423 28.1341 27.9021 27.9859 28.329 28.2112C29.1456 28.6419 29.951 29.0938 30.8672 29.3154C31.2518 29.4087 31.6315 29.6291 31.9501 29.8743C32.7057 30.4544 33.6742 30.5228 34.4808 30.9809C34.7149 31.1141 35.0472 31.0743 35.3435 31.0992C35.5302 31.7639 36.063 31.7054 36.5833 31.673C36.6007 31.4851 36.6057 31.2946 36.6468 31.1129C36.7351 30.717 36.9318 30.5764 37.2542 30.7693C37.7048 31.0394 38.2065 31.0681 38.6895 31.195C39.0679 31.2946 39.353 31.6805 39.7924 31.6245C40.0363 31.5934 40.1708 31.4278 40.111 31.2436C40.0276 30.9834 39.9069 30.7332 39.7973 30.4818C39.8733 30.493 39.9505 30.5054 40.0227 30.4917C40.6363 30.3759 40.7123 30.2677 40.5728 29.7473C40.3388 28.8747 40.5828 28.3942 41.4293 28.1316C41.6533 28.0619 41.8463 28.1851 41.9322 28.3868C42.0106 28.571 42.1077 28.7664 42.1164 28.9606C42.1637 29.888 42.2097 30.8179 42.2097 31.7465C42.2097 32.8382 41.4093 35.7697 40.8616 36.7754ZM29.9435 25.7777L30.0456 25.6532L30.1078 25.8038L29.9435 25.7777ZM31.9738 28.1876C32.0572 28.1254 32.1369 28.0183 32.2252 28.0096C32.7393 27.9573 33.2559 27.9299 33.6617 27.9013C34.085 27.9262 34.3974 27.9349 34.7061 27.971C34.8007 27.9822 34.8854 28.0718 34.9738 28.1254C34.8592 28.2361 34.751 28.4328 34.6265 28.444C33.8024 28.52 32.9721 28.5847 32.1593 28.3482C32.0896 28.3258 32.036 28.2424 31.9738 28.1876ZM35.2874 30.0087C35.7741 29.9938 36.0132 30.3498 35.763 30.722C35.6733 30.8552 35.5015 30.9349 35.3584 31.032C35.2489 30.7992 35.1405 30.5664 35.0298 30.3336C34.9439 30.1506 35.0273 30.0162 35.2874 30.0087ZM36.0157 27.3623C36.1588 27.4283 36.302 27.4943 36.4451 27.5602C36.0555 27.8926 36.0555 27.5951 36.0157 27.3623ZM39.348 30.0025C39.4675 30.122 39.5645 30.2652 39.6654 30.4033C39.4948 30.3946 39.3243 30.3909 39.155 30.371C38.8999 30.3398 38.7667 30.2228 38.8264 30.0722C38.8525 30.005 38.9795 29.9527 39.0666 29.9415C39.1588 29.9291 39.2895 29.944 39.348 30.0025ZM39.16 27.2764C39.2409 27.1208 39.3119 26.9565 39.4177 26.8196C39.5907 26.5955 39.7612 26.3789 39.7587 26.0826C40.1558 26.0826 40.5529 26.0827 40.95 26.0814C40.6426 26.9216 40.004 27.2565 39.16 27.2764ZM38.8463 27.732C38.8027 27.7469 38.7144 27.6299 38.6459 27.5727C38.7915 27.5005 38.9372 27.4283 39.0828 27.3561C39.094 27.5341 39.0218 27.6723 38.8463 27.732ZM41.0048 26.0391C41.0085 25.6544 41.2214 25.4727 41.5961 25.4478C41.5737 25.8237 41.3496 25.9943 41.0048 26.0391ZM41.6197 25.4242C41.6409 25.047 41.8463 24.8553 42.2147 24.8291C42.1936 25.2013 41.9944 25.3993 41.6197 25.4242ZM42.2509 24.7943C42.2782 24.4296 42.4836 24.2428 42.8371 24.208C42.8147 24.574 42.6181 24.7694 42.2509 24.7943ZM42.8844 24.1607C42.9193 23.8109 43.121 23.6316 43.4571 23.5893C43.4334 23.9441 43.2442 24.137 42.8844 24.1607ZM45.4052 23.5856C45.5844 23.5856 45.7636 23.5856 45.9429 23.5856C45.6728 24.0113 45.6479 24.0113 45.4052 23.5856ZM48.1935 22.1006C48.1649 22.1927 48.1213 22.2997 48.0491 22.357C47.423 22.8561 46.7508 23.2756 45.9852 23.5321C45.6653 23.0541 45.6391 23.0566 45.3528 23.5433C45.1748 23.6117 44.9832 23.6603 44.8238 23.7599C44.5475 23.9329 44.2948 23.9578 44.0097 23.786C43.8541 23.6926 43.6811 23.6304 43.513 23.5582C43.579 23.1337 43.8641 22.8337 44.1865 22.6283C45.1301 22.0284 46.1396 21.5877 47.3035 21.7259C47.5972 21.7607 47.8898 21.8217 48.1786 21.8864C48.201 21.8902 48.2134 22.0333 48.1935 22.1006ZM49.4383 20.8894C49.2391 20.9379 49.0412 21.0226 48.842 21.0263C48.1175 21.0425 47.3918 21.0537 46.6686 21.025C45.3529 20.974 44.2089 21.4259 43.2691 22.2922C42.0567 23.4101 40.9189 24.6088 39.7575 25.7802C39.7089 25.8287 39.7152 25.9308 39.7102 26.0229C39.2173 25.937 38.7019 25.9358 38.275 26.1636C37.6426 26.5009 36.9629 26.6528 36.3032 26.8831C36.165 26.9316 36.0816 27.1333 35.9808 27.2864C34.7509 27.2889 33.5211 27.305 32.2912 27.2814C32.0423 27.2764 31.924 27.0797 31.9937 26.9528C32.0385 26.8706 32.1406 26.781 32.2278 26.7685C32.6348 26.7088 33.0505 26.6988 33.4526 26.6192C33.5709 26.5955 33.6555 26.4026 33.7564 26.2868C33.6705 26.2295 33.5883 26.13 33.4987 26.1225C32.8838 26.0727 32.2638 26.0602 31.6502 25.998C31.38 25.9706 31.273 25.8113 31.3614 25.6744C31.4111 25.5959 31.5033 25.52 31.5916 25.4939C31.8842 25.4055 32.2041 25.3793 32.4742 25.2486C32.6149 25.1814 32.6933 24.9835 32.7929 24.8279C31.9215 24.7221 31.0203 24.9611 30.1676 24.6026C29.9398 24.5067 29.7979 24.3536 29.885 24.1321C30.2585 23.1873 30.963 22.4491 31.5095 21.6113C32.0684 20.7537 32.8315 20.0914 33.7601 19.6259C33.9107 19.55 33.9966 19.3421 34.1074 19.1865C34.2518 19.0782 34.3962 18.9699 34.5418 18.8616C34.4036 18.7608 34.2655 18.6612 34.1285 18.5604C34.1957 18.2355 34.4298 18.0487 34.6974 17.9019C35.1057 17.6778 35.3211 17.3579 35.087 16.9172C34.8269 16.428 34.7957 15.9687 35.0186 15.4608C35.2227 14.9953 35.3746 14.5085 35.57 13.9733C36.287 13.4741 37.1509 13.1691 38.0409 12.9911C38.7417 12.8505 39.4476 12.7534 40.1247 12.5082C40.3102 12.4409 40.5479 12.4036 40.7284 12.4596C41.7865 12.7857 42.9267 12.8019 43.9313 13.3135C43.9998 13.3484 44.0259 13.4654 44.0657 13.555C43.3537 13.9434 42.643 14.2708 41.8475 13.6907C41.6932 13.5774 41.4629 13.5388 41.2637 13.5202C40.9612 13.4928 40.6351 13.4455 40.3525 13.5264C39.2758 13.8364 38.1903 14.099 37.0937 14.3206C36.9405 14.3517 36.765 14.5982 36.724 14.7737C36.6567 15.065 36.6654 15.3811 36.6866 15.6836C36.7451 16.5176 36.8994 16.601 37.8803 16.377C38.2575 16.2911 38.4604 16.4927 38.3471 16.8562C38.2862 17.0504 38.1654 17.2247 38.1057 17.4189C38.0135 17.7139 38.3671 18.0164 38.6583 17.8272C39.2695 17.4301 39.7986 17.6417 40.3513 17.8882C40.4596 17.5931 40.6961 17.44 40.9948 17.4562C41.2973 17.4724 41.5936 17.5907 41.9359 17.6753C42.4151 17.3541 42.9019 16.962 43.4458 16.6795C44.1753 16.3011 44.9496 16.0085 45.7002 15.6811C46.7831 16.0297 47.891 16.2986 48.847 16.9483C49.1993 17.1873 49.4744 17.4961 49.615 17.8931C49.8217 18.4757 49.9972 19.0695 50.1777 19.6608C50.3034 20.0641 49.8615 20.786 49.4383 20.8894ZM43.9276 15.1309L43.7496 15.1708L43.7695 15.0426L43.9276 15.1309ZM40.5915 15.0911L40.7534 15.0413L40.726 15.1882L40.5915 15.0911ZM40.6662 16.3496C40.5654 16.5463 40.3762 16.6035 40.1397 16.5413C40.0637 16.4716 39.9131 16.3583 39.9243 16.3409C40.0426 16.1467 40.2355 16.072 40.4558 16.1479C40.543 16.1791 40.6799 16.3235 40.6662 16.3496ZM38.8886 15.167C38.7131 15.2305 38.5413 15.3127 38.3596 15.3463C38.2974 15.3575 38.1953 15.2579 38.1467 15.1857C38.1256 15.1533 38.1853 15.0127 38.2239 15.0052C38.3945 14.9741 38.5725 14.9579 38.7442 14.9741C38.7978 14.9778 38.8413 15.0998 38.8886 15.167ZM31.619 8.54224C31.6028 8.53352 31.5892 8.52606 31.5717 8.5161C31.5767 8.53104 31.5767 8.54722 31.5804 8.56216C31.5929 8.56216 31.6053 8.55842 31.619 8.55967C31.619 8.55344 31.619 8.54846 31.619 8.54224ZM32.1916 17.8819C32.1916 17.9093 32.1916 17.938 32.1916 17.9666C32.2128 17.9616 32.2277 17.9504 32.2477 17.9442C32.2489 17.9342 32.2489 17.9243 32.2514 17.9143C32.2265 17.9056 32.2128 17.8919 32.1916 17.8819ZM32.6024 15.2504C32.8327 14.821 32.8663 14.2559 32.8788 13.748C32.8949 13.1144 33.0369 12.538 33.2584 11.9505C33.4165 11.5285 33.1713 11.1688 32.7617 10.9522C32.6721 10.9049 32.6024 10.8215 32.5103 10.7443C32.8651 10.4206 33.4215 10.1779 33.0356 9.53434C32.9833 9.44721 32.9559 9.34389 32.926 9.24555C32.8962 9.14721 32.8614 9.04638 32.8551 8.94431C32.8041 8.15013 32.285 7.9659 31.629 7.95345C31.6252 8.14888 31.6228 8.34556 31.619 8.54224C32.0684 8.78746 32.0572 8.80116 31.6352 9.12231C31.6464 8.93186 31.6265 8.74639 31.5804 8.56216C31.3713 8.56216 31.1833 8.65178 31.1597 8.85219C31.1348 9.07003 31.3178 9.19825 31.5481 9.21817C31.2307 9.8555 30.861 10.4754 31.3066 11.221C31.3825 11.348 31.3004 11.6156 31.2195 11.7837C30.958 12.3214 31.1 12.7484 31.507 13.138C31.6526 13.2774 31.7821 13.4368 31.9016 13.5998C32.2228 14.0368 32.1717 14.2484 31.6153 14.7849C31.619 15.5106 31.6302 16.2376 31.6228 16.9633C31.619 17.4039 31.7983 17.7077 32.1879 17.8807C32.1941 16.9869 32.1443 16.1031 32.6024 15.2504ZM27.5498 18.2355C27.6058 18.1508 27.7091 18.0687 27.7116 17.9828C27.7477 16.7728 27.7801 15.5629 27.7838 14.3529C27.7838 14.2098 27.6095 14.0654 27.5162 13.9222C27.4602 14.0069 27.3618 14.0866 27.3544 14.1749C27.3058 14.7774 27.2772 15.3824 27.2622 15.6264C27.2622 16.5936 27.2436 17.2023 27.2747 17.8085C27.2822 17.9554 27.4539 18.0936 27.5498 18.2355ZM25.1249 22.5213C25.4237 22.1715 25.278 21.7421 25.3004 21.5752C25.3004 21.0387 25.3129 20.73 25.293 20.4238C25.2868 20.3342 25.2046 20.2284 25.1274 20.1711C25.0166 20.0902 24.7963 20.1923 24.7864 20.4338C24.759 21.1383 24.6096 21.8628 24.9556 22.5375C24.9656 22.5574 25.0963 22.5537 25.1249 22.5213ZM21.8686 10.158C21.932 10.0796 22.0316 10.0099 22.0528 9.92147C22.12 9.63393 22.1586 9.34016 22.1698 9.28041C22.1698 8.94182 22.1959 8.83227 22.1648 8.74265C22.1013 8.55966 22.008 8.38789 21.9258 8.21112C21.8387 8.37668 21.6856 8.53975 21.6756 8.71029C21.6507 9.10364 21.6856 9.50322 21.7167 9.89907C21.7229 9.98869 21.815 10.0721 21.8686 10.158ZM22.1835 16.6322C22.1835 16.6583 22.1847 16.6844 22.1847 16.7106C22.2046 16.7168 22.2208 16.728 22.2395 16.7355C22.2395 16.7106 22.2407 16.6857 22.2407 16.662C22.2196 16.6533 22.2034 16.6409 22.1835 16.6322ZM21.8374 14.5384C21.7802 14.6218 21.6781 14.704 21.6756 14.7899C21.6632 15.1957 21.6457 15.6052 21.693 16.006C21.7266 16.2936 21.9096 16.5114 22.1847 16.6322C22.1735 16.0484 22.1735 15.4645 22.1324 14.882C22.1237 14.7612 21.9395 14.6529 21.8374 14.5384ZM29.3933 5.15266C29.4182 5.16635 29.5564 5.04436 29.5875 4.96345C29.6647 4.76304 29.5913 4.59126 29.3946 4.45184C29.3361 4.51782 29.2477 4.57757 29.2178 4.65848C29.1394 4.86511 29.2029 5.04685 29.3933 5.15266ZM22.5183 7.04599C22.5781 6.97504 22.6652 6.9128 22.6938 6.8294C22.766 6.62401 22.6939 6.36136 22.5233 6.36634C22.3378 6.37132 22.2681 6.6265 22.3416 6.8294C22.3714 6.9128 22.4573 6.9738 22.5183 7.04599ZM30.9282 14.1339C30.9319 14.1575 30.9356 14.1799 30.9406 14.2023C30.9668 14.2036 30.9867 14.2123 31.0116 14.216C31.0066 14.1924 30.9954 14.1737 30.9917 14.15C30.9668 14.1451 30.9506 14.1388 30.9282 14.1339ZM30.6593 13.8413C30.6232 13.9944 30.7178 14.0903 30.9282 14.1339C30.9145 14.0567 30.9033 13.9795 30.8647 13.9185C30.8323 13.87 30.7303 13.865 30.6593 13.8413ZM31.0116 14.216C31.08 14.5135 31.2643 14.6978 31.5643 14.7687C31.5269 14.4351 31.3402 14.2546 31.0116 14.216ZM31.5643 14.7687C31.5668 14.7899 31.5742 14.8048 31.5755 14.8272C31.5916 14.8123 31.6029 14.7998 31.6178 14.7849C31.5991 14.7824 31.5842 14.7737 31.5643 14.7687ZM20.6574 5.59954L20.5503 5.78253L20.7184 5.80494L20.6574 5.59954ZM31.5556 7.88001C31.5618 7.90366 31.568 7.92856 31.5755 7.95221C31.5941 7.95221 31.6116 7.95221 31.629 7.95345C31.629 7.93353 31.6302 7.91611 31.6302 7.89619C31.6016 7.89246 31.5817 7.88499 31.5556 7.88001ZM31.2854 7.58624C31.2568 7.74433 31.3514 7.83893 31.5556 7.88001C31.5356 7.80532 31.5169 7.73063 31.4759 7.66964C31.4435 7.62109 31.3514 7.61238 31.2854 7.58624ZM18.5076 8.51361C18.4802 8.51361 18.4541 8.51361 18.4267 8.51361C18.4279 8.53228 18.4292 8.54971 18.4304 8.56838C18.4466 8.56838 18.4628 8.56838 18.4777 8.56962C18.4877 8.55344 18.4976 8.53228 18.5076 8.51361ZM18.779 8.09536C18.6956 8.09163 18.5997 8.34183 18.5076 8.51361C18.6906 8.51485 18.8736 8.5161 19.0566 8.51734C19.0678 8.30199 18.9806 8.10532 18.779 8.09536ZM19.4935 8.78124C19.3827 8.72771 19.2707 8.67419 19.1599 8.61942C19.2184 8.7302 19.2781 8.84224 19.3366 8.95302C19.3877 8.89576 19.4412 8.8385 19.4935 8.78124ZM19.1599 8.61942C19.1424 8.58581 19.1225 8.5522 19.1051 8.51859H19.0553C19.0541 8.53602 19.0578 8.5522 19.0553 8.56962C19.0902 8.58581 19.1263 8.60323 19.1599 8.61942ZM5.33393 16.0583C5.33269 16.0533 5.33144 16.0496 5.33019 16.0446C5.32272 16.0446 5.31651 16.0446 5.31029 16.0446C5.31153 16.0508 5.31526 16.0546 5.31775 16.0608C5.32273 16.0596 5.32895 16.0596 5.33393 16.0583ZM11.5716 19.179C11.5766 19.1828 11.5803 19.1852 11.5853 19.189V19.1753C11.5816 19.1753 11.5766 19.1753 11.5728 19.1753C11.5728 19.1765 11.5716 19.1778 11.5716 19.179ZM5.29161 17.2458C5.11734 17.2882 4.9356 17.3006 4.75511 17.3193C4.83975 17.4786 4.90447 17.6865 5.03269 17.7388C5.58538 17.9591 6.1642 18.116 6.73059 18.3039C8.14716 18.772 9.55752 19.2662 10.9853 19.6956C11.2629 19.779 11.5119 19.5101 11.5716 19.179C11.1061 18.874 11.1085 18.8678 11.5766 18.5554C11.5442 18.4583 11.5405 18.3201 11.4733 18.2728C11.0612 17.9865 10.572 17.7836 10.2247 17.4363C9.44549 16.6558 8.33638 16.6994 7.4339 16.2251C6.80403 15.894 6.04844 15.9774 5.33517 16.0571C5.3862 16.245 5.42481 16.4367 5.49327 16.6172C5.66132 17.0579 5.64016 17.1612 5.29161 17.2458ZM9.37703 18.2554C9.31852 18.2255 9.23885 18.2093 9.20648 18.162C9.18408 18.1297 9.16915 18.0923 9.15421 18.0537C9.2289 18.1209 9.30234 18.1882 9.37703 18.2554ZM8.93014 17.6753C8.97246 17.7338 8.99487 17.8073 9.01852 17.8794C8.82059 17.8359 8.72351 17.7438 8.74094 17.5969C8.80567 17.6218 8.89653 17.628 8.93014 17.6753ZM6.89367 16.8712L6.96087 17.0591L6.78288 17.0342L6.89367 16.8712ZM11.6314 16.0807C11.9089 16.9483 12.5625 17.2571 13.4127 17.277C13.1351 16.4069 12.4704 16.1143 11.6314 16.0807ZM13.4127 17.277C13.4189 17.2944 13.4264 17.3093 13.4313 17.3268C13.45 17.3255 13.4699 17.3255 13.4886 17.3243C13.4836 17.3081 13.4774 17.2969 13.4724 17.2795C13.4512 17.2807 13.4326 17.2782 13.4127 17.277ZM20.0947 21.9661C20.0437 21.8852 20.0001 21.7981 19.9404 21.7246C19.5682 21.2703 19.0989 21.0362 18.5113 21.0848C18.6508 21.3213 18.7964 21.5541 18.9209 21.7981C18.998 21.9499 19.0454 22.1167 19.1001 22.2798C19.2769 22.2686 19.4586 22.2748 19.6242 22.225C19.7922 22.1765 19.9391 22.0557 20.0947 21.9661ZM19.1001 22.281C19.0852 22.2823 19.0703 22.2823 19.0566 22.2835C19.069 22.3022 19.0814 22.3209 19.0926 22.3408C19.1014 22.3408 19.1113 22.3408 19.12 22.3408C19.1138 22.3209 19.1076 22.301 19.1001 22.281ZM17.1682 19.779C17.1744 19.7939 17.1819 19.8064 17.1894 19.8226C17.2093 19.8251 17.223 19.8325 17.2416 19.8363C17.2404 19.8151 17.2329 19.8014 17.2329 19.779C17.2105 19.7803 17.1906 19.7778 17.1682 19.779ZM15.3657 18.5753C15.6483 19.4591 16.272 19.8263 17.1682 19.779C16.8309 18.9836 16.2446 18.5591 15.3657 18.5753ZM14.7272 20.4425C14.7247 20.435 14.7209 20.4288 14.7184 20.4201C14.7085 20.4201 14.6985 20.4188 14.6886 20.4188C14.6911 20.4275 14.6948 20.4338 14.6973 20.4425C14.7072 20.4425 14.7172 20.4437 14.7272 20.4425ZM16.5744 21.6773C16.2732 20.791 15.6695 20.3603 14.7272 20.4425C15.0272 21.3238 15.6782 21.6823 16.5744 21.6773ZM14.6886 20.4188C14.4085 19.5164 13.75 19.1865 12.8637 19.1989C13.1438 20.0927 13.8097 20.4139 14.6886 20.4188ZM12.8637 19.1989C12.86 19.1852 12.8537 19.1753 12.8488 19.1616L12.8338 19.179C12.8413 19.1703 12.8488 19.1616 12.8488 19.1616C12.8338 19.1616 12.8189 19.1616 12.8039 19.1616C12.8077 19.1753 12.8127 19.184 12.8164 19.1989C12.8326 19.1977 12.8475 19.1989 12.8637 19.1989ZM4.22981 16.0235C4.58955 16.0309 4.95054 16.0384 5.31029 16.0446C5.1883 15.6612 4.91942 15.477 4.51859 15.4695C4.17254 15.4633 3.82648 15.4546 3.47918 15.4471C3.58125 15.8243 3.83147 16.016 4.22981 16.0235ZM3.48043 15.4484C3.47546 15.4322 3.46799 15.421 3.46425 15.4036C3.45927 15.406 3.45428 15.4073 3.4493 15.411C3.44059 15.4222 3.43312 15.4359 3.42566 15.4471C3.44308 15.4471 3.46176 15.4484 3.48043 15.4484ZM10.2671 22.2736C10.282 22.2947 10.2957 22.3159 10.3106 22.3371C10.338 22.3371 10.3654 22.3383 10.3915 22.3383C10.3828 22.3159 10.3691 22.3022 10.3617 22.2786C10.3305 22.2761 10.2982 22.2748 10.2671 22.2736ZM12.1392 22.9059C11.9687 22.5138 11.6289 22.3769 11.2256 22.3532C10.948 22.3371 10.6691 22.3408 10.3915 22.3383C10.5447 22.7503 10.8919 22.8785 11.2977 22.901C11.5778 22.9159 11.8591 22.9072 12.1392 22.9059ZM14.1359 23.5906C14.1297 23.5694 14.1197 23.552 14.1147 23.5296C14.0848 23.5296 14.0562 23.5283 14.0263 23.5283C14.0375 23.5507 14.0537 23.5657 14.0637 23.5893C14.0886 23.5893 14.1122 23.5906 14.1359 23.5906ZM14.7334 24.1096C15.1168 24.1557 15.5064 24.147 15.8935 24.1557C15.723 23.7636 15.3832 23.6292 14.9798 23.6068C14.6985 23.5906 14.4172 23.5943 14.1359 23.5906C14.2168 23.8943 14.4346 24.0736 14.7334 24.1096ZM7.46752 24.2267C7.19117 24.2117 6.91482 24.2179 6.63723 24.2192C6.81524 24.6051 7.15257 24.7569 7.55713 24.7806C7.83348 24.7968 8.11106 24.7843 8.38865 24.7806C8.21687 24.3823 7.87332 24.2478 7.46752 24.2267ZM8.38865 24.7806C8.39737 24.8005 8.41106 24.8117 8.41853 24.8329C8.44716 24.8366 8.46709 24.8453 8.49198 24.8515C8.48576 24.8267 8.48078 24.8018 8.47331 24.7781C8.44593 24.7781 8.41728 24.7806 8.38865 24.7806ZM16.7549 24.7669C17.096 24.7744 17.4371 24.7781 17.7781 24.7831C17.6848 24.4856 17.4657 24.3051 17.167 24.2677C16.7823 24.2204 16.3902 24.2267 16.0006 24.2155C16.1188 24.5715 16.3678 24.7582 16.7549 24.7669ZM16.0006 24.2155C15.9931 24.1943 15.9832 24.1794 15.9769 24.157C15.9496 24.1557 15.9209 24.1557 15.8935 24.1557C15.9022 24.1769 15.9184 24.1906 15.9271 24.2142C15.952 24.2155 15.9757 24.2155 16.0006 24.2155ZM13.0156 23.5109C13.3529 23.5171 13.689 23.5221 14.0263 23.5283C13.8371 23.1524 13.4998 23.0068 13.094 22.9831C12.8127 22.9669 12.5313 22.9694 12.25 22.9657C12.377 23.3155 12.6272 23.5034 13.0156 23.5109ZM12.25 22.9657C12.2425 22.9445 12.2301 22.9283 12.2226 22.9059C12.1952 22.9059 12.1666 22.9059 12.1392 22.9059C12.1492 22.9271 12.1629 22.9408 12.1716 22.9644C12.1977 22.9644 12.2239 22.9657 12.25 22.9657ZM3.76176 16.7417C3.58126 16.7479 3.37337 16.8276 3.23769 16.9434C3.14931 17.0193 3.30242 17.2073 3.5464 17.2297C3.91237 17.2645 4.28209 17.262 4.65055 17.2707C4.47503 16.9023 4.16258 16.7293 3.76176 16.7417ZM4.65055 17.2707C4.6605 17.2907 4.6742 17.3068 4.68291 17.328C4.70656 17.3255 4.7302 17.323 4.75385 17.3205C4.74514 17.3056 4.73767 17.2882 4.72895 17.2732C4.70406 17.272 4.67793 17.2707 4.65055 17.2707ZM18.8064 25.3769C18.9931 25.3719 19.2084 25.2947 19.3503 25.1789C19.4412 25.1042 19.2856 24.9088 19.0317 24.8839C18.6508 24.8478 18.2661 24.8528 17.8827 24.8441C18.0532 25.2449 18.3981 25.3856 18.8064 25.3769ZM17.8827 24.8441C17.874 24.8217 17.8591 24.8092 17.8503 24.7856C17.8267 24.7856 17.8018 24.7831 17.7781 24.7831C17.7844 24.8042 17.7956 24.8217 17.8006 24.8428C17.8279 24.8428 17.8553 24.8428 17.8827 24.8441ZM11.5255 16.021C11.538 16.0396 11.5504 16.0583 11.5641 16.0757C11.5878 16.0757 11.609 16.0795 11.6314 16.0807C11.6251 16.0608 11.6164 16.0446 11.6102 16.0235C11.5816 16.0222 11.5542 16.0222 11.5255 16.021ZM10.9367 15.5529C10.8496 15.5641 10.7251 15.6114 10.694 15.6787C10.6256 15.8255 10.75 15.9538 11.0052 15.9911C11.177 16.016 11.3513 16.0172 11.5255 16.021C11.4272 15.8791 11.3351 15.7309 11.2168 15.6089C11.1608 15.5517 11.0289 15.5417 10.9367 15.5529ZM9.67828 21.8068C9.5899 21.818 9.46416 21.864 9.43056 21.9313C9.3596 22.0757 9.48782 22.1989 9.74798 22.235C9.91977 22.2586 10.0928 22.2636 10.2658 22.2723C10.17 22.1317 10.0778 21.9848 9.96083 21.864C9.90606 21.8068 9.77164 21.7956 9.67828 21.8068ZM16.5906 21.6873C16.5894 21.6835 16.5881 21.6811 16.5869 21.6773C16.5819 21.6773 16.5782 21.6773 16.5732 21.6773C16.5744 21.6811 16.5769 21.6848 16.5782 21.6885C16.5832 21.6885 16.5869 21.6885 16.5906 21.6873ZM17.8342 22.3097C17.8503 22.413 17.8329 22.54 17.8877 22.6134C18.3371 23.2134 18.8972 23.6155 19.6902 23.5482C19.6366 23.374 19.6005 23.191 19.5171 23.0317C19.3927 22.7927 19.2383 22.5686 19.0926 22.3396C18.6732 22.3296 18.2549 22.3184 17.8342 22.3097C17.6549 21.6263 17.1234 21.6549 16.5906 21.6873C16.7649 22.3682 17.2964 22.3458 17.8342 22.3097ZM13.4886 17.3243C13.6716 17.9442 14.162 17.9467 14.6724 17.9081C14.4757 17.3118 13.989 17.3031 13.4886 17.3243ZM14.6724 17.9081C14.6774 17.9218 14.6836 17.9317 14.6873 17.9454C14.7047 17.9479 14.7184 17.9541 14.7359 17.9566C14.7359 17.9367 14.7284 17.9243 14.7297 17.9043C14.711 17.9056 14.6911 17.9068 14.6724 17.9081ZM17.7906 17.9031C17.7968 17.9193 17.8043 17.9317 17.8105 17.9492C17.8317 17.9517 17.8491 17.9604 17.869 17.9641C17.8678 17.9404 17.8591 17.9255 17.8591 17.9006C17.8367 17.9019 17.8143 17.9019 17.7906 17.9031ZM16.6304 17.3317C16.8371 17.8869 17.3002 17.923 17.7906 17.9031C17.5889 17.3392 17.1184 17.318 16.6304 17.3317ZM11.5816 18.5566C11.5816 18.5554 11.5816 18.5541 11.5816 18.5516C11.5803 18.5529 11.5791 18.5554 11.5766 18.5554C11.5791 18.5566 11.5803 18.5566 11.5816 18.5566ZM12.8039 19.1616C12.6346 18.4994 12.1044 18.5342 11.5816 18.5566C11.5828 18.762 11.5841 18.9699 11.5853 19.1753C11.9923 19.1715 12.3981 19.1653 12.8039 19.1616ZM19.73 23.5719C19.7275 23.5632 19.7225 23.557 19.72 23.547C19.7101 23.5482 19.7001 23.547 19.6902 23.5482C19.6927 23.557 19.6951 23.5657 19.6976 23.5731C19.7088 23.5731 19.72 23.5731 19.73 23.5719ZM20.9362 24.1706C20.7769 23.4897 20.2466 23.5445 19.73 23.5719C19.9217 24.1968 20.4196 24.203 20.9362 24.1706ZM21.7005 24.7993C21.8573 24.803 22.0154 24.7918 22.1735 24.7856C21.9669 24.2155 21.4901 24.1819 20.9872 24.2005C21.0669 24.5814 21.3009 24.7893 21.7005 24.7993ZM20.9872 24.2005C20.9847 24.1881 20.9773 24.1806 20.976 24.1682C20.9623 24.1694 20.9499 24.1694 20.9362 24.1706C20.9387 24.1818 20.9437 24.1906 20.9461 24.2018C20.9598 24.2018 20.9748 24.2018 20.9872 24.2005ZM17.8018 20.3977C17.8043 20.4163 17.8118 20.43 17.813 20.45C17.8329 20.4512 17.8466 20.4587 17.8665 20.4612C17.864 20.4425 17.8566 20.4288 17.8553 20.4076C17.8354 20.4064 17.8205 20.3989 17.8018 20.3977ZM17.2416 19.8363C17.2553 20.1935 17.4657 20.3578 17.8018 20.3977C17.762 20.0641 17.5591 19.8923 17.2416 19.8363ZM17.8665 20.4612C17.9064 20.796 18.1068 20.9715 18.4279 21.025C18.4093 20.6715 18.2001 20.5047 17.8665 20.4612ZM18.4279 21.025C18.4292 21.0462 18.4367 21.0624 18.4367 21.0848C18.4628 21.0811 18.4852 21.0873 18.5113 21.0848C18.5026 21.0686 18.4927 21.0537 18.4839 21.0375C18.464 21.0363 18.4478 21.0288 18.4279 21.025ZM8.49198 24.8515C8.50816 24.9237 8.52559 24.9959 8.56418 25.052C8.59654 25.1005 8.69239 25.1055 8.75961 25.1291C8.78077 24.9897 8.68617 24.8989 8.49198 24.8515ZM22.7088 25.0881C22.5544 25.0109 22.4001 24.9337 22.247 24.8565C22.2781 25.1242 22.2831 25.4316 22.7088 25.0881ZM22.247 24.8565C22.2445 24.8316 22.2407 24.8067 22.2383 24.7831C22.2171 24.7831 22.1947 24.7856 22.1735 24.7856C22.1797 24.8018 22.1872 24.8117 22.1922 24.8279C22.2096 24.8379 22.2283 24.8478 22.247 24.8565ZM6.25509 23.8557C6.2277 24.0051 6.3248 24.0997 6.53392 24.1457C6.51898 24.0686 6.50528 23.9914 6.46545 23.9304C6.43184 23.8819 6.32853 23.8794 6.25509 23.8557ZM6.53392 24.1457C6.5389 24.1706 6.54263 24.1943 6.54885 24.2179C6.57873 24.2179 6.60736 24.2192 6.63723 24.2192C6.62727 24.1993 6.61358 24.1843 6.60486 24.1632C6.57748 24.1594 6.55882 24.152 6.53392 24.1457ZM14.7359 17.9566C14.7371 18.3338 14.9562 18.4969 15.3085 18.5305C15.2811 18.1745 15.0695 18.0052 14.7359 17.9566ZM15.3085 18.5305C15.3097 18.5467 15.3159 18.5566 15.3159 18.574C15.3334 18.574 15.3483 18.5753 15.3657 18.5753C15.3608 18.5628 15.3558 18.5516 15.3521 18.538C15.3359 18.538 15.3234 18.533 15.3085 18.5305ZM18.4205 18.5155C18.423 18.5367 18.4329 18.5529 18.4342 18.5765L18.5313 18.6251C18.5151 18.5927 18.4976 18.5604 18.4815 18.528C18.4591 18.5267 18.4416 18.518 18.4205 18.5155ZM17.869 17.9641C17.8914 18.3077 18.0918 18.4757 18.4205 18.5155C18.3757 18.1931 18.179 18.0226 17.869 17.9641ZM18.7105 18.9761C18.769 18.9189 18.8275 18.8616 18.886 18.8043C18.7678 18.7446 18.6495 18.6848 18.5313 18.6251C18.591 18.7421 18.6508 18.8591 18.7105 18.9761ZM15.6222 16.3546C15.5998 16.5152 15.7006 16.606 15.9122 16.6347C15.891 16.5575 15.8711 16.4791 15.8263 16.4181C15.7927 16.372 15.6919 16.3732 15.6222 16.3546ZM15.9122 16.6347C15.9184 16.6558 15.9234 16.6782 15.9309 16.6994C15.9558 16.7031 15.9757 16.7118 15.9993 16.7168C15.9956 16.6919 15.9856 16.6732 15.9831 16.6459C15.9558 16.6434 15.9371 16.6371 15.9122 16.6347ZM16.547 17.2658C16.5495 17.2907 16.5595 17.3081 16.5595 17.3342C16.5832 17.333 16.6068 17.333 16.6317 17.333C16.6255 17.3156 16.6168 17.3031 16.6105 17.2844C16.5869 17.2795 16.5695 17.2707 16.547 17.2658ZM16.0006 16.7156C16.0491 17.0293 16.2446 17.1998 16.547 17.2658C16.5147 16.9346 16.3081 16.7753 16.0006 16.7156ZM6.89739 26.3565C6.86378 26.5071 6.95714 26.6042 7.16253 26.6528C7.14884 26.5768 7.13639 26.4997 7.0978 26.4387C7.06668 26.3876 6.9671 26.3814 6.89739 26.3565ZM7.16378 26.6515C7.16752 26.6739 7.17125 26.6963 7.17748 26.7175C7.19242 26.715 7.2086 26.7125 7.22354 26.7113C7.22478 26.6963 7.22602 26.6826 7.22726 26.6677C7.20237 26.664 7.18495 26.6565 7.16378 26.6515ZM47.1802 17.9604C47.2076 17.9604 47.2338 17.9604 47.2611 17.9604C47.2611 17.9604 47.2487 17.9467 47.2362 17.933L47.2611 17.9604C47.2636 17.938 47.2723 17.9193 47.2761 17.8969C47.2537 17.8994 47.2312 17.9019 47.2088 17.9043C47.2001 17.9243 47.1889 17.9404 47.1802 17.9604ZM45.7686 18.2877C45.7997 18.3624 45.913 18.4321 45.9989 18.4496C46.5068 18.5504 46.94 18.4657 47.179 17.9604C46.8105 17.9629 46.4408 17.9529 46.0748 17.9828C45.8358 18.0027 45.7114 18.1483 45.7686 18.2877ZM47.2761 17.8969C47.5337 17.8682 47.7939 17.8458 48.0491 17.7998C48.1275 17.7848 48.1897 17.684 48.2607 17.623C48.1001 17.5458 47.9346 17.399 47.7802 17.4089C47.4952 17.4263 47.3259 17.618 47.2761 17.8969ZM33.7153 24.6337C33.7576 24.5976 33.7887 24.4694 33.7626 24.4408C33.6157 24.2802 33.3991 24.2292 33.2173 24.3661C33.0829 24.4682 32.9983 24.635 32.8999 24.7843C33.0817 24.7794 33.2647 24.7794 33.4439 24.7582C33.5398 24.7457 33.6406 24.6959 33.7153 24.6337ZM32.8675 24.8354C32.8787 24.8192 32.89 24.8005 32.9012 24.7831C32.875 24.7843 32.8489 24.7843 32.824 24.7856C32.8153 24.7993 32.8066 24.8142 32.7978 24.8291C32.8202 24.8316 32.8439 24.8316 32.8675 24.8354ZM40.7558 18.177C40.6488 18.1222 40.5417 18.0674 40.4347 18.0126C40.4907 18.1222 40.5467 18.2317 40.6015 18.34C40.6538 18.2853 40.7048 18.2305 40.7558 18.177ZM40.4347 18.0126C40.416 17.9753 40.3961 17.9367 40.3762 17.8994C40.3675 17.8956 40.36 17.8919 40.3513 17.8882C40.3426 17.9118 40.3289 17.9292 40.3214 17.9554C40.36 17.9741 40.3973 17.9927 40.4347 18.0126ZM22.5868 30.1457C22.5358 30.1058 22.405 30.0934 22.3652 30.1295C21.6407 30.7892 20.8341 31.3743 20.3935 32.2904C20.4681 32.2942 20.5428 32.2979 20.6138 32.2842C21.708 32.0813 22.3378 31.3544 22.7337 30.3772C22.7536 30.3249 22.6565 30.1992 22.5868 30.1457ZM13.4973 34.7626C14.3189 34.3979 14.8803 33.7718 15.2786 32.9826C13.9927 33.1593 13.6703 33.4805 13.4973 34.7626ZM15.2786 32.9826C15.306 32.9788 15.3271 32.9738 15.3558 32.9701C15.3558 32.9477 15.3645 32.9328 15.3657 32.9116C15.3458 32.9153 15.3309 32.924 15.311 32.9265C15.301 32.9465 15.2886 32.9639 15.2786 32.9826ZM13.4849 41.6575C13.4637 41.665 13.4475 41.6762 13.4263 41.6837C13.4276 41.6862 13.4276 41.6899 13.4276 41.6924C13.4463 41.7061 13.4662 41.7185 13.4836 41.7322C13.4849 41.7073 13.4849 41.6824 13.4849 41.6575ZM14.0525 40.9057C14.0587 40.5584 14.0587 40.2111 14.0599 39.8638C13.796 39.9385 13.5819 40.1028 13.5471 40.3654C13.4898 40.7912 13.4986 41.2256 13.4849 41.6575C13.8309 41.5318 14.045 41.3003 14.0525 40.9057ZM15.6134 37.2485C15.7504 37.0555 15.6931 36.8962 15.428 36.8165C15.3433 36.7916 15.2114 36.8265 15.1367 36.8825C14.7857 37.1427 14.706 37.5186 14.7222 37.9256C15.174 37.9095 15.3857 37.5684 15.6134 37.2485ZM14.7222 37.9256C14.711 37.9256 14.7023 37.9331 14.6911 37.9331C14.6911 37.9468 14.6911 37.9605 14.6911 37.9742C14.7023 37.9704 14.711 37.9642 14.7222 37.9605C14.7209 37.948 14.7222 37.9356 14.7222 37.9256ZM14.1035 39.7928C14.0873 39.7978 14.0774 39.8065 14.0599 39.8115C14.0599 39.8289 14.0599 39.8464 14.0599 39.8638C14.0749 39.8588 14.0886 39.8526 14.1035 39.8488C14.1035 39.8289 14.1035 39.8115 14.1035 39.7928ZM14.6774 39.0248C14.6923 38.675 14.6873 38.324 14.6898 37.9729C14.3189 38.0949 14.111 38.3501 14.0998 38.7484C14.0898 39.0957 14.101 39.4455 14.1035 39.7928C14.4682 39.6733 14.6612 39.4119 14.6774 39.0248ZM20.3088 29.7946C20.3026 29.8145 20.2939 29.8282 20.2877 29.8457C20.3126 29.8457 20.3375 29.8457 20.3623 29.8457L20.3088 29.7946ZM20.2877 29.8457C19.8072 29.8444 19.3092 29.8083 19.1325 30.4183C19.6142 30.4195 20.0897 30.4096 20.2877 29.8457ZM19.0516 30.4681C19.0727 30.4681 19.0939 30.4681 19.1151 30.4681C19.12 30.4482 19.1275 30.4357 19.1325 30.4183C19.1113 30.4183 19.0902 30.4183 19.069 30.4183C19.0653 30.4369 19.0566 30.4494 19.0516 30.4681ZM16.6354 31.6606C16.7885 31.6618 16.9416 31.6643 17.0948 31.6618C17.4869 31.6556 17.7221 31.4676 17.7906 31.0905C17.3139 31.0979 16.862 31.1552 16.6354 31.6606ZM17.7906 31.0905C17.8105 31.0905 17.8304 31.0892 17.8516 31.0892C17.8578 31.0693 17.8678 31.0556 17.8752 31.0382C17.8516 31.0382 17.8292 31.0382 17.8055 31.0382C17.8018 31.0581 17.7931 31.0718 17.7906 31.0905ZM17.8752 31.0382C18.0296 31.0407 18.184 31.0469 18.3383 31.0407C18.723 31.0257 18.9595 30.8303 19.0516 30.4681C18.5636 30.4656 18.0906 30.488 17.8752 31.0382ZM15.3657 32.9116C15.6769 32.8506 15.8686 32.6726 15.9184 32.3552C15.5911 32.3987 15.3882 32.5668 15.3657 32.9116ZM15.9172 32.3552C15.9383 32.3527 15.9558 32.3452 15.9782 32.3427C15.9794 32.3203 15.9881 32.3054 15.9906 32.2842C15.9695 32.288 15.9533 32.2942 15.9321 32.2967C15.9296 32.3191 15.9209 32.334 15.9172 32.3552ZM20.0935 32.766C20.1507 32.6415 20.2068 32.5158 20.264 32.3913C20.1395 32.4597 20.0151 32.527 19.8906 32.5954C19.9578 32.6527 20.0262 32.7099 20.0935 32.766ZM20.264 32.3913L20.3636 32.3365C20.3711 32.3191 20.3835 32.3066 20.3922 32.2892C20.3648 32.288 20.3374 32.2867 20.3113 32.2867C20.2951 32.3216 20.2802 32.3564 20.264 32.3913ZM13.3853 34.8896C13.4176 34.8746 13.4512 34.8585 13.4836 34.8435C13.4873 34.8136 13.4923 34.7912 13.496 34.7626C13.4749 34.7726 13.4575 34.7863 13.4363 34.795C13.4201 34.8273 13.4027 34.8585 13.3853 34.8896ZM13.1874 35.2468C13.2533 35.1273 13.3193 35.0078 13.3853 34.8896L13.0268 35.0551C13.0803 35.1199 13.1338 35.1833 13.1874 35.2468ZM20.5839 29.3938C20.5267 29.5096 20.4706 29.6253 20.4134 29.7424C20.5316 29.6826 20.6499 29.6216 20.7669 29.5619C20.7071 29.5058 20.6462 29.4498 20.5839 29.3938ZM20.4146 29.7424C20.3798 29.7598 20.3449 29.7785 20.3101 29.7959L20.3636 29.8482C20.3798 29.8121 20.3972 29.7772 20.4146 29.7424ZM16.547 31.7278C16.5695 31.7228 16.5869 31.7154 16.6093 31.7116C16.6168 31.6929 16.6267 31.678 16.6354 31.6606C16.6093 31.6606 16.5831 31.6606 16.5558 31.6606C16.557 31.6867 16.5483 31.7042 16.547 31.7278ZM15.9906 32.2842C16.313 32.2332 16.5321 32.0801 16.547 31.7278C16.2383 31.7888 16.0317 31.9544 15.9906 32.2842ZM30.3879 31.7216C30.5958 32.3091 30.9904 32.6938 31.6228 32.7996C31.6962 32.812 31.807 32.7336 31.8618 32.6651C31.8979 32.6203 31.8941 32.4971 31.858 32.446C31.4946 31.9431 31.0215 31.6593 30.3879 31.7216ZM36.6356 31.7141C36.6306 31.6979 36.6231 31.6867 36.6194 31.6705C36.6082 31.6718 36.5957 31.6718 36.5833 31.673C36.582 31.6867 36.5808 31.7017 36.5796 31.7154C36.5982 31.7154 36.6169 31.7141 36.6356 31.7141ZM37.3476 32.2767C37.5007 32.283 37.6538 32.2842 37.8069 32.288C37.721 31.9344 37.5318 31.6954 37.1173 31.7054C36.9567 31.7091 36.7961 31.7129 36.6356 31.7141C36.7314 32.0726 36.9667 32.2631 37.3476 32.2767ZM39.409 33.4095L39.516 33.2315L39.3405 33.2116L39.409 33.4095ZM38.2799 32.5419C38.1642 32.4909 38.0484 32.4411 37.9326 32.39C37.9973 32.4983 38.0608 32.6066 38.1256 32.7149C38.1766 32.6577 38.2289 32.6004 38.2799 32.5419ZM37.9326 32.39C37.9127 32.3564 37.8928 32.3228 37.8729 32.2904C37.8505 32.2904 37.8281 32.2892 37.8057 32.2892C37.8106 32.3079 37.8181 32.3228 37.8218 32.3427C37.8592 32.3577 37.8965 32.3738 37.9326 32.39ZM29.3012 30.8017C29.4257 30.8701 29.5489 30.9386 29.6734 31.0083C29.646 30.8091 29.6796 30.5291 29.3012 30.8017ZM29.6734 31.0083C29.6784 31.0394 29.6834 31.0681 29.6921 31.0917C29.7157 31.0917 29.7319 31.1004 29.7543 31.1017C29.7506 31.0818 29.7406 31.0656 29.7381 31.0432L29.6734 31.0083ZM30.3132 31.6606C30.3145 31.6817 30.322 31.6979 30.3232 31.7203C30.3468 31.7166 30.3655 31.7241 30.3879 31.7216C30.3817 31.7054 30.373 31.6917 30.368 31.6755C30.3468 31.673 30.3332 31.6656 30.3132 31.6606ZM29.7556 31.1017C29.8191 31.4104 30.0045 31.5959 30.3132 31.6606C30.2871 31.3145 30.1016 31.1266 29.7556 31.1017Z" fill="#FBF8EF"/>
</svg>
