<svg width="144" height="62" viewBox="0 0 144 62" fill="none" xmlns="http://www.w3.org/2000/svg">
<path d="M128.029 43.3183C126.392 43.2537 124.734 43.1245 123.097 43.2537C122.903 43.2753 122.903 43.5552 123.097 43.5552C124.734 43.6844 126.392 43.5552 128.029 43.4906C128.136 43.5122 128.136 43.3399 128.029 43.3183Z" fill="#768F6E"/>
<path d="M79.3565 36.4575C78.2797 36.0483 77.2029 35.5745 76.0615 35.3807C75.8461 35.3376 75.6953 35.6391 75.9107 35.7467C76.9229 36.3498 78.0859 36.6513 79.1842 37.0389C79.5719 37.2112 79.7226 36.6082 79.3565 36.4575Z" fill="#768F6E"/>
<path d="M135.796 41.3837C133.311 41.4866 131.233 40.3107 129.247 38.9633C127.405 37.721 125.685 36.2953 124.073 34.7742C120.706 31.627 117.9 27.963 115.644 23.9184C113.491 20.0788 111.704 15.9693 108.739 12.6367C105.995 9.55786 102.53 7.16287 98.7718 5.48672C94.3833 3.52986 89.6194 2.49153 84.8335 2.18993C84.3578 2.15859 84.0957 2.91367 84.6185 3.05748C88.893 4.26863 91.7594 7.95706 93.7812 11.7197C95.8029 15.4823 97.3869 19.4622 99.9634 22.8923C104.677 29.1767 111.518 33.5576 118.584 36.8186C122.697 38.7095 126.964 40.3371 131.24 41.8286C131.707 41.9961 131.985 41.3172 131.534 41.1098C121.523 36.4586 112.686 29.1643 105.798 20.57C103.858 18.1455 102.062 15.5939 100.279 13.0705C100.136 12.8492 99.7467 13.0628 99.8808 13.304C102.569 18.2247 106.222 22.6074 110.134 26.5834C114.066 30.5676 118.398 34.086 123.082 37.1423C125.704 38.8666 128.456 40.3875 131.24 41.8286C131.338 41.589 131.436 41.3494 131.534 41.1098C124.081 38.2265 116.492 35.3343 109.852 30.8027C106.594 28.5853 103.575 25.9531 101.128 22.8323C98.4155 19.3933 96.7917 15.3971 94.7546 11.5583C92.6069 7.53442 89.5793 3.50047 84.9695 2.19888C84.8951 2.49472 84.8288 2.7706 84.7345 3.0583C93.2831 3.54624 102.252 6.42002 108.116 12.9647C111.185 16.3862 112.99 20.62 115.231 24.5884C117.412 28.4162 120.156 31.8915 123.348 34.8974C125.186 36.6042 127.205 38.2683 129.359 39.5448C131.31 40.6917 133.542 41.6043 135.832 41.4681C135.891 41.4925 135.872 41.3682 135.796 41.3837Z" fill="#768F6E"/>
<path d="M134.597 43.0811C130.182 43.4262 125.702 43.7498 121.266 43.5557C116.873 43.3615 112.415 42.6065 108.452 40.6435C104.295 38.5727 101.172 35.0565 97.2313 32.6621C93.5486 30.4187 89.3275 29.3832 85.0632 29.0812C80.0022 28.7145 74.9411 29.297 69.9231 29.9009C69.4709 29.9441 69.2124 30.5481 69.6862 30.8069C79.4207 36.3508 89.629 42.0025 100.893 43.5557C103.886 43.9655 107.052 44.1812 110.045 43.7067C110.584 43.6204 110.455 42.7575 109.916 42.7791C107.181 42.8438 104.468 42.9085 101.732 42.585C99.0404 42.2614 96.3699 41.6789 93.764 40.9024C88.4229 39.3277 83.3403 36.9764 78.3869 34.431C75.6087 32.9857 72.8736 31.4972 70.1385 29.9657C70.0524 30.2677 69.9662 30.5697 69.8801 30.8717C78.4946 29.7715 88.186 28.7145 96.0683 33.1798C100.117 35.4879 103.262 39.0688 107.397 41.226C111.208 43.189 115.473 44.1165 119.715 44.3538C124.712 44.6342 129.644 44.0734 134.575 43.3615C134.791 43.3184 134.748 43.0595 134.597 43.0811Z" fill="#768F6E"/>
<path d="M109.959 41.7868C105.673 40.9887 101.431 39.8885 97.2743 38.5511C93.0531 37.1921 89.0043 35.4448 84.9339 33.6975C84.5247 33.525 84.1801 34.0858 84.5893 34.3015C88.4874 36.4587 92.687 38.0118 96.9297 39.3277C101.172 40.6219 105.523 41.5064 109.916 42.0457C110.067 42.0888 110.11 41.8299 109.959 41.7868Z" fill="#768F6E"/>
<path d="M131.345 46.2523C130.742 46.1876 130.139 46.0366 129.536 45.9719C128.933 45.9072 128.33 45.864 127.727 45.8209C126.521 45.713 125.337 45.562 124.131 45.4326C121.783 45.1306 119.436 44.7423 117.11 44.2677C114.827 43.7931 112.566 43.2323 110.347 42.6067C108.021 41.9596 105.76 41.0752 103.434 40.4712C103.089 40.3849 102.853 40.881 103.197 41.0536C105.308 42.089 107.612 42.7361 109.873 43.3833C112.242 44.052 114.611 44.6344 117.024 45.109C119.35 45.562 121.675 45.9287 124.023 46.1876C125.229 46.317 126.413 46.4249 127.619 46.5111C128.223 46.5543 128.826 46.5974 129.429 46.5974C130.075 46.619 130.721 46.5112 131.367 46.4896C131.496 46.468 131.475 46.2523 131.345 46.2523Z" fill="#768F6E"/>
<path d="M125.746 47.3737C119.608 46.1441 113.298 44.8498 107.031 45.8205C104.253 46.252 101.496 47.1148 99.041 48.517C96.672 49.876 94.7122 51.7527 92.9031 53.7588C90.8141 56.0669 88.8327 58.4829 86.2484 60.2949C85.8176 60.5969 86.0761 61.3088 86.6145 61.1794C93.1185 59.5831 99.7948 61.5676 106.363 60.9636C112.264 60.4028 117.325 57.3612 121.654 53.4568C124.131 51.235 126.349 48.7542 128.546 46.2735C128.89 45.8637 128.546 45.346 128.051 45.4323C122.753 46.2951 117.498 47.5031 112.372 49.0562C109.831 49.8328 107.311 50.6957 104.813 51.6664C102.336 52.6155 99.8379 53.6294 97.5765 54.9884C97.275 55.1609 97.4688 55.7002 97.8134 55.5708C100.269 54.6432 102.638 53.5215 105.05 52.5724C107.526 51.5801 110.046 50.6957 112.587 49.8975C117.692 48.3012 122.882 47.1364 128.18 46.4461C128.072 46.1657 127.943 45.8637 127.814 45.5833C123.959 49.8112 119.974 54.2118 114.956 57.1024C112.415 58.5692 109.615 59.5831 106.686 59.9067C103.456 60.2734 100.182 59.9714 96.952 59.7557C93.3985 59.5184 89.8019 59.4105 86.313 60.2734C86.4422 60.5754 86.5714 60.8558 86.6791 61.1578C91.051 58.0947 93.6784 53.1764 98.0503 50.1348C102.831 46.8128 108.883 45.9931 114.547 46.2735C118.273 46.4461 121.956 47.0285 125.617 47.6325C125.832 47.5894 125.875 47.3953 125.746 47.3737Z" fill="#768F6E"/>
<path d="M104.468 44.9796C99.7729 44.807 95.0995 44.354 90.4692 43.6852C88.2079 43.3617 85.9465 42.9518 83.7067 42.4772C82.5869 42.24 81.467 41.9811 80.3471 41.7007C79.2702 41.4203 78.1719 41.0751 77.052 41.0535C76.8366 41.0535 76.772 41.334 76.9443 41.4418C77.9565 42.0242 79.141 42.2615 80.2609 42.5204C81.3808 42.7793 82.5007 43.0381 83.6206 43.2754C85.9034 43.75 88.2078 44.1383 90.5338 44.4403C95.1641 45.0658 99.816 45.2815 104.468 45.1737C104.576 45.1737 104.576 45.0011 104.468 44.9796Z" fill="#768F6E"/>
<path d="M100.634 44.5698C96.3056 44.8286 91.9768 44.8286 87.6695 44.505C85.4943 44.3325 83.2976 44.0736 81.1439 43.7069C80.1102 43.5343 79.0764 43.3618 78.0427 43.146C76.9874 42.9303 75.9321 42.6284 74.8553 42.4989C74.4246 42.4342 74.403 43.0813 74.7691 43.2108C75.8244 43.6206 76.9659 43.8147 78.0642 44.052C79.098 44.2677 80.1317 44.4619 81.1655 44.6345C83.3191 44.9796 85.4943 45.2169 87.6695 45.3679C92.0198 45.6483 96.3702 45.5189 100.677 44.8934C100.85 44.8502 100.807 44.5698 100.634 44.5698Z" fill="#768F6E"/>
<path d="M77.0303 41.2043C77.2457 41.4632 77.6549 41.3769 77.8057 41.0749C78.021 40.6435 77.6549 40.2336 77.3534 39.9963C75.7166 38.7236 73.9076 37.6235 72.1847 36.4371C71.9693 36.2861 71.6893 36.4802 71.6893 36.7175C71.6462 38.4216 72.5508 39.9748 74.0153 40.816C74.1014 40.6003 74.2091 40.363 74.2952 40.1473C72.4862 39.8669 70.6771 39.5865 68.868 39.2845C68.5019 39.2198 68.1574 39.6512 68.4804 39.9532C69.8587 41.2691 71.4093 42.3261 73.1323 43.1242C73.1969 42.8438 73.283 42.5633 73.3476 42.2829C72.4216 42.3908 71.4955 42.5202 70.5694 42.628C70.1171 42.6928 69.9018 43.4262 70.4617 43.5125C72.4646 43.7929 74.489 44.1596 76.5135 44.3537C77.0303 44.3969 77.1596 43.5125 76.6427 43.4262C74.6398 43.081 72.5938 42.9085 70.591 42.628C70.591 42.93 70.591 43.232 70.591 43.534C71.5601 43.4046 72.5077 43.2968 73.4768 43.1674C73.843 43.1242 73.9291 42.4986 73.5845 42.3476C71.9262 41.6142 70.3971 40.6219 69.0619 39.3708C68.9327 39.5865 68.8034 39.8238 68.6742 40.0395C70.4833 40.2983 72.3139 40.5572 74.1229 40.816C74.489 40.8592 74.7906 40.363 74.4029 40.1473C73.1323 39.457 72.3569 38.1412 72.3569 36.6744C72.1846 36.7606 72.0339 36.8685 71.8616 36.9548C72.8307 37.6019 73.7999 38.249 74.769 38.8746C75.2213 39.1766 75.6735 39.4571 76.1043 39.7591C76.3196 39.9101 76.5565 40.0611 76.7719 40.1905C76.9011 40.2768 77.0304 40.3415 77.1596 40.4278C77.4611 40.5572 77.4826 40.7297 77.1811 40.9886C77.0734 40.967 76.9442 41.0965 77.0303 41.2043Z" fill="#768F6E"/>
<path d="M73.1112 38.7022C73.5419 38.7669 73.6927 38.4649 73.7573 38.0766C73.8649 37.3432 73.1973 36.8039 72.7235 36.3509C71.3452 35.0782 69.773 33.9996 68.0717 33.1583C64.712 31.4973 60.8569 30.7639 57.1311 31.0227C55.0206 31.1737 52.8885 31.6267 50.9286 32.4249C50.3256 32.6837 50.541 33.6329 51.2086 33.4387C51.704 33.2877 51.9409 35.4017 52.0485 35.7253C52.3501 36.6097 52.8238 37.4294 53.4484 38.1197C54.8267 39.716 56.7219 40.7946 58.6387 41.6143C60.8569 42.585 63.1829 43.2537 65.5734 43.6204C66.7364 43.793 67.9424 43.9224 69.1269 43.9224C70.3114 43.9224 71.6252 43.944 72.7451 43.5341C73.0035 43.4478 73.0896 42.9948 72.7451 42.9301C71.5175 42.7576 70.2468 42.887 68.9977 42.8438C67.7271 42.8007 66.4779 42.6929 65.2504 42.4987C62.7737 42.0889 60.3401 41.3339 58.0787 40.2121C56.2481 39.3061 54.3745 38.0766 53.3838 36.2214C52.9315 35.3586 52.9315 34.4095 52.5869 33.525C52.307 32.8132 51.7686 32.1876 50.9286 32.4249C51.0148 32.77 51.1225 33.0936 51.2086 33.4387C54.999 31.8856 59.134 31.5404 63.1613 32.4249C65.1427 32.8563 67.0379 33.5681 68.8039 34.5389C69.7299 35.035 70.5914 35.5959 71.4313 36.243C71.7974 36.545 72.1636 36.847 72.5081 37.149C72.702 37.3216 72.9389 37.4726 73.0896 37.6883C73.1542 37.7746 73.5204 38.4433 73.1542 38.4433C73.0035 38.4433 72.9604 38.6806 73.1112 38.7022Z" fill="#768F6E"/>
<path d="M66.7144 31.7558C64.6253 30.7419 62.6009 29.5555 60.7057 28.1965C58.7459 26.7728 57.0876 25.1118 55.3216 23.4724C55.0416 23.2135 54.6755 23.6018 54.9124 23.8822C56.42 25.6942 58.4444 27.2042 60.3827 28.5416C62.364 29.9006 64.453 31.0223 66.6713 31.9283C66.7359 31.9715 66.8005 31.7989 66.7144 31.7558Z" fill="#768F6E"/>
<path d="M60.7274 30.5702C59.2629 29.5779 57.8846 28.4347 56.5924 27.2267C55.3218 26.0402 54.2665 24.7244 53.1466 23.4301C52.9312 23.1928 52.5005 23.5164 52.6943 23.7752C54.6972 26.6658 57.6046 29.0171 60.5767 30.8506C60.749 30.9585 60.8997 30.6781 60.7274 30.5702Z" fill="#768F6E"/>
<path d="M55.7524 23.0415C54.934 21.3805 54.0295 19.7627 53.1465 18.1448C52.9742 17.8428 52.5866 18.0154 52.565 18.2958C52.4358 19.5254 52.5866 20.7549 52.9312 21.9414C53.1035 21.8335 53.2757 21.7472 53.448 21.6394C52.4358 20.6471 51.2513 19.9137 49.9376 19.4175C49.6361 19.3097 49.4207 19.6764 49.5499 19.9137C50.1529 21.0354 50.9283 22.0061 51.8759 22.8258C51.8974 22.6317 51.9189 22.4375 51.9405 22.2434C51.1006 22.6532 50.2176 22.8474 49.27 22.8258C48.9038 22.8258 48.7531 23.3435 49.0761 23.5376C50.6698 24.3789 52.242 25.2418 53.8357 26.0831C54.288 26.3419 54.6971 25.6301 54.2449 25.3928C52.6512 24.5515 51.0575 23.7102 49.4638 22.8905C49.3992 23.1278 49.3346 23.3651 49.27 23.6024C50.3468 23.6024 51.3375 23.3651 52.3066 22.8905C52.5004 22.7827 52.5435 22.4591 52.3712 22.3081C51.4451 21.5315 50.7129 20.6255 50.1099 19.5685C49.9807 19.7411 49.8514 19.8921 49.7222 20.0647C50.9498 20.4961 52.0482 21.1648 52.9958 22.0708C53.2111 22.2865 53.5988 22.0708 53.5126 21.7688C53.168 20.6255 53.0604 19.4822 53.1681 18.2958C52.9742 18.3389 52.7804 18.4037 52.5866 18.4468C53.5126 20.0431 54.4172 21.6609 55.4078 23.2141C55.5801 23.4298 55.8601 23.2572 55.7524 23.0415Z" fill="#768F6E"/>
<path d="M52.2638 19.1581C51.3593 15.9008 49.0764 13.3338 46.2121 11.6081C42.8524 9.5804 38.9328 8.82542 35.0562 8.80385C32.6011 8.78227 30.1459 9.0627 27.7338 9.40784C27.1308 9.49413 27.3246 10.3785 27.863 10.4217C30.3397 10.6374 31.8473 12.9456 32.7518 15.0164C33.721 17.2167 34.4316 19.4601 35.9823 21.3584C38.5451 24.5078 42.5078 26.2119 46.4059 26.9454C48.6672 27.3768 51.1439 27.6356 53.4483 27.3552C54.0729 27.2905 54.0944 26.3845 53.4483 26.3629C51.3162 26.2982 49.2056 26.3414 47.0735 25.9747C45.006 25.6295 42.9601 25.0255 41.0864 24.0764C39.2989 23.1488 37.6621 21.8977 36.4561 20.2798C34.9701 18.2737 34.367 15.8145 33.2471 13.6143C32.1703 11.5003 30.3397 9.60198 27.863 9.40784C27.9061 9.75298 27.9492 10.0765 27.9923 10.4217C32.9457 9.70982 38.2221 9.34311 43.0247 11.0904C46.8797 12.4925 50.3901 15.3831 51.8977 19.2875C51.9623 19.4817 52.3284 19.3954 52.2638 19.1581Z" fill="#768F6E"/>
<path d="M52.9312 30.8289C49.7869 30.5485 46.7072 29.9445 43.649 29.1247C42.1845 28.7365 40.72 28.2835 39.2986 27.7657C37.8342 27.248 36.4127 26.5793 34.9267 26.1263C34.6252 26.04 34.4745 26.4499 34.7329 26.6009C36.0466 27.399 37.5542 27.9383 38.9971 28.4345C40.5047 28.9522 42.0553 29.4052 43.6059 29.7935C46.6641 30.5269 49.8084 30.8936 52.9312 31.0446C53.0604 31.0446 53.0604 30.8289 52.9312 30.8289Z" fill="#768F6E"/>
<path d="M52.9745 32.8344C51.3162 32.5108 49.6148 32.3598 47.9565 32.0578C46.2767 31.7558 44.6184 31.4107 42.9601 31.0008C41.3448 30.591 39.7511 30.138 38.179 29.6203C36.5207 29.0594 34.9054 28.3907 33.2471 27.8946C33.0102 27.8298 32.8595 28.175 33.0749 28.2828C34.5393 29.1025 36.1761 29.6634 37.7483 30.1811C39.4066 30.742 41.0864 31.2165 42.7878 31.6264C44.4461 32.0362 46.1259 32.3598 47.8058 32.6187C49.5071 32.8775 51.23 33.1364 52.953 33.0932C53.0822 33.1148 53.1253 32.8776 52.9745 32.8344Z" fill="#768F6E"/>
<path d="M31.3302 23.3434C26.0107 16.4837 16.4485 15.815 8.52306 16.9799C5.7664 17.3897 3.05282 17.9937 0.339234 18.5761C0.489989 18.8566 0.662266 19.1154 0.813021 19.3958C1.52372 18.7271 2.49288 18.9428 3.24666 19.4174C4.10811 19.9351 4.62499 20.7117 5.03418 21.6177C5.83103 23.4081 6.32636 25.3927 8.11389 26.5144C8.99688 27.0753 10.0306 27.3557 11.0213 27.6146C12.2058 27.9166 13.3903 28.1754 14.5963 28.348C17.0084 28.7147 19.442 28.8441 21.8757 28.7147C23.1894 28.65 24.4816 28.499 25.7522 28.2833C27.0875 28.0676 28.5089 27.8518 29.7365 27.2478C30.038 27.0968 29.9088 26.5576 29.5642 26.5791C28.3581 26.687 27.1952 27.0537 26.0107 27.2694C24.74 27.4851 23.4263 27.6361 22.1341 27.7224C19.5928 27.8734 17.0084 27.7655 14.4887 27.3557C13.2395 27.1615 12.012 26.8811 10.8059 26.536C9.72912 26.234 8.60921 25.8673 7.8339 25.0044C6.45557 23.4944 6.3479 21.251 5.05571 19.6763C3.89274 18.2741 1.65294 17.2603 0.14539 18.7056C-0.220729 19.0507 0.166953 19.6331 0.619218 19.5253C8.84613 17.6917 17.9991 15.7503 25.903 19.8057C27.7982 20.7764 29.5642 22.0923 31.0071 23.6885C31.2009 23.9258 31.524 23.5807 31.3302 23.3434Z" fill="#768F6E"/>
<path d="M32.0841 20.3882C34.2593 21.3589 36.4129 22.3943 38.6096 23.2787C38.6958 23.3003 38.7389 23.1709 38.6742 23.1277C36.5206 22.1139 34.3024 21.2295 32.1056 20.3019C32.0626 20.3019 32.041 20.3882 32.0841 20.3882Z" fill="#768F6E"/>
<path d="M51.8329 34.5604C49.5069 34.345 47.181 34.2373 44.8335 34.2804C43.6706 34.302 42.5076 34.345 41.3446 34.4312C40.2893 34.5173 39.0618 34.4743 38.0496 34.7973C37.7696 34.8834 37.8342 35.2926 38.1142 35.3142C39.234 35.4003 40.4616 35.0988 41.6031 35.0127C42.723 34.9265 43.8429 34.8619 44.9628 34.8188C47.2456 34.7327 49.55 34.7112 51.8329 34.7973C52.0051 34.8188 51.9836 34.5604 51.8329 34.5604Z" fill="#768F6E"/>
<path d="M52.4359 36.1129C50.433 35.7899 48.4301 35.6822 46.4057 35.8114C45.415 35.876 44.4459 35.9837 43.4767 36.156C42.5507 36.3068 41.4523 36.4145 40.677 36.9744C40.4832 37.1036 40.5693 37.3836 40.7847 37.3836C41.6677 37.4482 42.5507 37.1252 43.4121 36.9529C44.4459 36.7591 45.4796 36.6083 46.5349 36.5437C48.4732 36.3929 50.433 36.436 52.3497 36.6514C52.6728 36.6514 52.7374 36.156 52.4359 36.1129Z" fill="#768F6E"/>
<path d="M38.1786 35.0787C36.025 34.7767 33.8714 34.5178 31.7177 34.2805C31.3085 34.2374 31.2439 34.7982 31.5239 34.9923C33.1176 36.0925 34.9051 36.9338 36.7788 37.4299C36.7788 37.1495 36.7788 36.8906 36.7788 36.6102C36.3265 36.7612 35.8527 36.9338 35.4004 37.0848C35.0989 37.1926 34.9266 37.7104 35.2928 37.8614C36.1111 38.2281 36.9295 38.5948 37.7694 38.9615C37.7694 38.7026 37.7694 38.4653 37.7694 38.2065C36.908 38.6379 36.2834 39.3713 36.0035 40.2989C35.9389 40.5146 36.0896 40.795 36.305 40.8382C39.1047 41.2912 42.0552 40.4068 43.9719 38.2928C44.3381 37.8829 43.7566 37.2789 43.3474 37.6672C41.5599 39.4361 39.0401 40.3852 36.5419 39.9969C36.6495 40.1695 36.7357 40.3636 36.8434 40.5362C37.0587 39.8243 37.5326 39.3066 38.2002 38.9615C38.4802 38.832 38.5017 38.3359 38.2002 38.2065C37.3818 37.8398 36.5419 37.4946 35.7235 37.1279C35.6804 37.3868 35.6589 37.6456 35.6158 37.9045C36.0681 37.7535 36.5419 37.5809 36.9941 37.4299C37.3818 37.3005 37.4249 36.7181 36.9941 36.6102C35.1635 36.1356 33.4622 35.3806 31.89 34.3236C31.8254 34.5609 31.7608 34.7982 31.6962 35.0355C33.8283 35.2081 35.9604 35.4022 38.0925 35.5317C38.3725 35.5317 38.4371 35.1218 38.1786 35.0787Z" fill="#768F6E"/>
<path d="M35.4221 35.1002C32.1055 32.8784 27.8844 32.5332 24.094 33.6118C20.1743 34.7335 16.7716 37.2789 13.9503 40.1911C13.5411 40.6009 14.0795 41.3559 14.5749 41.0108C16.2332 39.8891 18.2361 42.1756 19.4636 43.0601C20.7774 44.0092 22.3065 44.6779 23.8786 45.0231C27.0445 45.7565 30.4472 45.3466 33.3546 43.8798C34.8837 43.1032 36.6282 41.9599 37.3604 40.3636C37.5112 40.0185 37.145 39.7597 36.8651 39.9754C35.5729 40.9892 34.4745 42.1325 32.9885 42.9091C31.524 43.6641 29.9088 44.1171 28.272 44.2681C24.9123 44.5916 21.7896 43.6209 19.1837 41.5069C17.8053 40.3852 15.8024 38.8752 14.0364 40.0832C14.2518 40.3636 14.4456 40.6225 14.661 40.9029C17.3315 38.1418 20.4112 35.7258 24.094 34.5178C27.7121 33.3314 31.8686 33.4608 35.1637 35.4885C35.4437 35.6827 35.6806 35.2728 35.4221 35.1002Z" fill="#768F6E"/>
<path d="M73.8432 30.1815C72.5726 27.7871 71.3019 25.4143 69.9882 23.0414C69.8375 22.7394 69.3852 23.0198 69.5359 23.3002C70.8497 25.6731 72.1849 28.0028 73.4987 30.3541C73.6494 30.5698 73.9724 30.3972 73.8432 30.1815Z" fill="#768F6E"/>
<path d="M70.1389 24.2062C70.182 22.6962 70.225 21.1862 70.2466 19.6762C70.2466 19.2664 69.622 19.2664 69.6005 19.6762C69.5574 20.7332 69.5359 21.7687 69.4928 22.8257C69.6866 22.7609 69.902 22.7178 70.0958 22.6531C69.4713 21.2725 68.2437 20.3018 66.7577 19.9998C66.5638 19.9566 66.3054 20.0861 66.3269 20.3234C66.4346 21.5961 66.8654 22.8041 67.5761 23.8611C68.2006 24.7671 69.2128 25.932 70.3327 26.1692C70.5912 26.2339 70.8281 25.9104 70.5912 25.7162C70.2035 25.3495 69.7297 25.1122 69.3205 24.7671C68.8898 24.4004 68.5021 23.9689 68.1575 23.4944C67.4899 22.5452 67.1023 21.4667 66.973 20.3234C66.8223 20.4312 66.6931 20.5391 66.5423 20.6469C67.8776 20.9058 68.9113 21.7471 69.4928 22.9767C69.6436 23.2787 70.0958 23.1061 70.1174 22.8041C70.1389 21.7471 70.182 20.7117 70.2035 19.6547C69.9881 19.6547 69.7728 19.6547 69.5574 19.6547C69.5574 21.1647 69.622 22.6746 69.6651 24.1846C69.7082 24.4866 70.1389 24.4866 70.1389 24.2062Z" fill="#768F6E"/>
<path d="M69.3845 19.9139C69.7937 18.2961 69.4061 16.5056 68.8461 14.9741C68.2646 13.3778 67.3816 11.9325 66.2833 10.6382C63.8497 7.76922 60.4684 5.93567 56.9149 4.83553C54.7613 4.16682 52.543 3.77853 50.3248 3.4981C49.8941 3.45495 49.7648 4.10208 50.1094 4.27465C51.8108 5.20222 52.1769 7.22993 52.3923 8.99878C52.6292 10.8971 52.8015 12.7522 53.5337 14.5426C55.0197 18.1019 57.9702 20.863 61.3299 22.6319C63.2897 23.6673 65.4003 24.4008 67.5755 24.7675C68.1139 24.8538 68.3508 24.0341 67.8124 23.9262C63.9358 23.2144 60.1669 21.467 57.3457 18.6628C55.9673 17.2822 54.8259 15.6212 54.1367 13.7876C53.4906 12.0188 53.4045 10.1636 53.1461 8.33007C52.8661 6.45336 52.3061 4.51193 50.5186 3.54122C50.454 3.80007 50.3679 4.05896 50.3032 4.31781C54.9336 4.87867 59.7793 6.08666 63.5051 9.04194C65.1418 10.3362 66.4986 11.9541 67.4678 13.8092C67.9631 14.7584 68.3508 15.7722 68.6092 16.8292C68.8461 17.8431 68.8892 18.8569 69.0399 19.8924C69.0615 20.0865 69.3415 20.0649 69.3845 19.9139Z" fill="#768F6E"/>
<path d="M66.5421 24.8533C67.4251 25.9534 68.2866 27.1614 69.3203 28.1105C69.4926 28.2831 69.8156 28.0674 69.6649 27.8301C68.8896 26.6221 67.7912 25.5867 66.8436 24.5297C66.6498 24.314 66.3698 24.6375 66.5421 24.8533Z" fill="#768F6E"/>
<path d="M97.8127 45.5407C96.9513 47.1154 95.1207 47.741 93.4839 48.1724C91.3518 48.7333 89.1766 49.1863 87.023 49.5746C82.5219 50.4159 77.9777 50.9767 73.412 51.3219C73.5412 51.6239 73.6489 51.9259 73.7781 52.2063C74.295 51.7533 74.618 51.1493 74.7257 50.459C74.7472 50.2433 74.7042 49.9629 74.4888 49.8766C71.4522 48.5392 64.4313 46.4036 63.3114 51.2787C62.9668 52.8103 63.376 54.4713 64.4098 55.6577C65.5727 57.0383 67.5325 57.3834 69.2124 56.8226C71.2583 56.1323 72.8951 54.3419 72.9597 52.12C72.9812 51.667 72.3351 51.6239 72.2059 52.0122C71.6244 53.8026 70.1169 55.5067 68.2002 55.8734C66.4126 56.2186 64.9051 55.1184 64.4313 53.3927C63.9575 51.7102 64.6251 49.9629 66.4126 49.4883C67.5971 49.1863 68.8893 49.3589 70.0738 49.5746C71.4091 49.8334 72.7228 50.2217 73.9504 50.7826C73.8642 50.5884 73.7996 50.3943 73.7135 50.1786C73.6489 50.7179 73.4551 51.1061 73.0459 51.4729C72.7228 51.7749 72.9597 52.4004 73.412 52.3573C78.2361 51.9906 83.0388 51.2788 87.7768 50.2865C89.9735 49.8335 92.2133 49.3589 94.3454 48.6686C95.9391 48.1509 97.5112 47.3312 98.2435 45.7565C98.3727 45.5192 97.9635 45.2603 97.8127 45.5407Z" fill="#768F6E"/>
<path d="M93.4841 47.7842C89.5644 51.969 84.5465 55.0322 79.0331 56.5853C79.1624 56.6284 79.3131 56.65 79.4423 56.6931C78.4301 55.4851 76.5564 55.1831 75.2643 56.0891C73.9505 57.0167 73.6921 58.7855 74.3167 60.1661C74.4243 60.4034 74.7259 60.425 74.9197 60.3171C76.298 59.67 77.6763 58.6561 78.4086 57.2756C78.5809 56.9304 78.1717 56.6716 77.9132 56.8873C76.7718 57.8149 75.7381 58.7856 74.4674 59.5406C74.6612 59.6053 74.8766 59.6484 75.0704 59.6916C74.489 58.6993 74.8335 57.2971 75.8242 56.6931C76.8149 56.0891 78.1071 56.4127 78.8178 57.2756C78.9039 57.3834 79.0977 57.4266 79.227 57.3834C84.8695 55.744 89.9736 52.573 93.8717 48.1724C94.1517 47.9136 93.7425 47.5037 93.4841 47.7842Z" fill="#768F6E"/>
<path d="M29.5646 22.7607C25.7526 20.3663 21.2515 18.9426 16.7719 18.5112C16.6858 18.5112 16.6643 18.6406 16.7504 18.6406C21.273 19.2446 25.4727 20.7115 29.5 22.8686C29.5646 22.9333 29.6292 22.8039 29.5646 22.7607Z" fill="#768F6E"/>
<path d="M29.8874 23.6669C25.1063 21.9196 20.1529 20.4743 15.1349 19.6977C15.0272 19.6762 14.9842 19.8272 15.0919 19.8487C20.0883 20.9273 25.0201 22.1353 29.8443 23.8394C29.952 23.8826 29.995 23.71 29.8874 23.6669Z" fill="#768F6E"/>
<path d="M29.3921 24.6374C25.9247 23.7098 22.4789 22.6744 18.99 21.8547C18.8823 21.8331 18.8392 21.9841 18.9469 22.0273C22.3712 23.0843 25.8816 23.9256 29.349 24.8531C29.4782 24.8963 29.5428 24.659 29.3921 24.6374Z" fill="#768F6E"/>
<path d="M28.8101 24.786C25.1489 24.1615 21.5092 23.4939 17.8265 23.0416C17.7188 23.0201 17.6972 23.2139 17.8049 23.2354C21.423 23.9676 25.0842 24.4845 28.7454 25.066C28.9177 25.066 28.9823 24.8076 28.8101 24.786Z" fill="#768F6E"/>
<path d="M28.8106 25.7362C25.1063 25.8439 21.5097 25.3485 17.87 24.6163C17.6977 24.5732 17.6331 24.8316 17.8054 24.8747C21.3374 25.8869 25.1494 26.1238 28.8106 25.9515C28.9613 25.9515 28.9613 25.7362 28.8106 25.7362Z" fill="#768F6E"/>
<path d="M29.3492 26.7934C24.9558 27.0949 20.5193 26.7288 16.212 25.8458C16.0828 25.8243 16.0397 25.9966 16.1689 26.0396C20.4977 27.0949 24.9342 27.3964 29.3707 27.0303C29.5 27.0088 29.5 26.7719 29.3492 26.7934Z" fill="#768F6E"/>
<path d="M34.9056 35.9168C31.0721 35.3138 27.217 34.7107 23.362 34.28C23.2543 34.2585 23.2328 34.4307 23.3405 34.4523C27.174 35.0984 31.029 35.5937 34.884 36.1106C34.9917 36.1106 35.0132 35.9168 34.9056 35.9168Z" fill="#768F6E"/>
<path d="M34.8619 36.8027C33.1606 36.5658 31.4807 36.3935 29.7793 36.2643C28.0134 36.1351 26.1828 35.9843 24.4383 36.1351C24.3091 36.1566 24.3091 36.3289 24.4383 36.3505C26.1612 36.5012 27.9272 36.4581 29.6501 36.5658C31.3946 36.6735 33.1175 36.8243 34.8404 37.0396C34.9696 37.0612 34.9912 36.8243 34.8619 36.8027Z" fill="#768F6E"/>
<path d="M35.3787 37.2568C32.4712 37.2353 29.4992 37.0415 26.6133 37.2568C26.4841 37.2568 26.4841 37.4506 26.6133 37.4721C29.5208 37.6875 32.4712 37.5152 35.3787 37.4721C35.5294 37.4937 35.5294 37.2568 35.3787 37.2568Z" fill="#768F6E"/>
<path d="M34.8405 37.7529C32.4714 37.9682 30.0378 38.0328 27.6904 38.442C27.5827 38.4636 27.6042 38.6574 27.7119 38.6574C30.0809 38.6143 32.4714 38.2267 34.8189 38.0113C34.9912 37.9898 34.9912 37.7529 34.8405 37.7529Z" fill="#768F6E"/>
<path d="M35.4222 38.5298C32.6655 38.8744 29.8873 39.1329 27.1738 39.6713C27.0661 39.6928 27.0876 39.8866 27.1953 39.8651C29.9519 39.6497 32.7086 39.1759 35.4437 38.7883C35.5945 38.7667 35.5514 38.5083 35.4222 38.5298Z" fill="#768F6E"/>
<path d="M37.0371 39.91C34.3019 40.1253 31.5237 40.2546 28.8102 40.6422C28.7025 40.6638 28.724 40.8145 28.8317 40.8145C31.5668 40.7499 34.3235 40.4269 37.0371 40.2115C37.2094 40.19 37.2094 39.8884 37.0371 39.91Z" fill="#768F6E"/>
<path d="M34.1944 40.4925C32.5145 41.3324 30.6839 41.6554 28.8103 41.677C28.681 41.677 28.7026 41.8492 28.8103 41.8708C30.727 42.1077 32.6437 41.6769 34.3666 40.8155C34.582 40.7078 34.4097 40.4063 34.1944 40.4925Z" fill="#768F6E"/>
<path d="M33.7421 41.6358C31.8038 41.8081 29.8655 42.3034 28.1641 43.251C28.0134 43.3372 28.1426 43.531 28.2934 43.4664C30.0594 42.7126 31.8253 42.1527 33.7421 41.9804C33.9574 41.9373 33.9574 41.6143 33.7421 41.6358Z" fill="#768F6E"/>
<path d="M71.6248 37.8178C69.8804 36.7392 68.0713 35.7685 66.1976 34.9272C64.4101 34.1291 62.5364 33.3094 60.6197 32.8995C60.4905 32.8779 60.4474 33.0505 60.5551 33.0937C62.4718 33.8271 64.4101 34.4311 66.2838 35.2508C68.0713 36.049 69.8157 36.9765 71.5171 38.012C71.6463 38.0982 71.754 37.9041 71.6248 37.8178Z" fill="#768F6E"/>
<path d="M71.5602 40.104C68.6959 38.896 65.8315 37.6017 62.9026 36.5231C62.7734 36.48 62.6872 36.6741 62.8164 36.7388C65.6593 38.0547 68.6097 39.1548 71.4956 40.3412C71.6464 40.3844 71.6895 40.1687 71.5602 40.104Z" fill="#768F6E"/>
<path d="M70.4616 41.8487C67.748 41.2026 65.0344 40.5134 62.2993 39.9319C62.1701 39.9104 62.1055 40.1042 62.2347 40.1473C64.9483 40.8364 67.6619 41.4395 70.397 42.064C70.5477 42.0856 70.5908 41.8702 70.4616 41.8487Z" fill="#768F6E"/>
<path d="M68.8252 42.2384C66.6069 42.1307 64.4317 41.7 62.2781 41.1185C62.1919 41.0969 62.1704 41.2046 62.235 41.2477C64.3456 42.023 66.5638 42.3892 68.8252 42.4968C68.9975 42.4968 68.9975 42.2384 68.8252 42.2384Z" fill="#768F6E"/>
<path d="M44.7257 13.7013C44.5534 13.6366 43.7996 13.2267 43.8642 13.6582C43.9073 13.8523 44.2519 14.0249 44.3811 14.1112C44.7472 14.37 45.1349 14.6073 45.501 14.8662C46.5778 15.6212 47.5469 16.5271 48.5807 17.3469C49.7652 18.2744 50.7774 19.2883 51.7681 20.4316C51.8327 20.5178 51.9835 20.41 51.9188 20.3021C50.6913 18.3391 48.6884 17.0448 46.9439 15.5995C46.3194 15.0818 45.7163 14.6073 45.0487 14.1758C44.7903 14.0033 44.5103 13.7876 44.2303 13.6582C44.1442 13.615 43.9504 13.5719 44.1442 13.6582C44.3165 13.7444 44.5318 13.766 44.7041 13.8307C44.7687 13.8523 44.7903 13.7444 44.7257 13.7013Z" fill="#768F6E"/>
<path d="M43.0892 14.2834C44.6183 15.3404 46.0828 16.4621 47.4396 17.7133C48.7533 18.9212 49.8947 20.2802 51.1653 21.5529C51.2515 21.6392 51.4238 21.5314 51.3376 21.4235C50.3254 19.9351 48.9256 18.5976 47.5903 17.3897C46.2335 16.1601 44.769 15.0384 43.2184 14.0461C43.0892 13.9814 42.96 14.1971 43.0892 14.2834Z" fill="#768F6E"/>
<path d="M41.3659 15.5129C44.4241 17.2602 47.1592 19.5036 49.5928 22.0706C49.6789 22.1569 49.7866 22.0275 49.722 21.9412C47.3961 19.2448 44.5963 17.0445 41.4736 15.3403C41.3443 15.2541 41.2367 15.4482 41.3659 15.5129Z" fill="#768F6E"/>
<path d="M41.9687 17.6271C44.6823 19.6764 47.3743 21.7472 50.131 23.7534C50.1956 23.7965 50.2817 23.6887 50.2171 23.6455C47.5466 21.5315 44.79 19.5254 42.0764 17.4761C41.9687 17.4114 41.861 17.5624 41.9687 17.6271Z" fill="#768F6E"/>
<path d="M41.9901 19.8059C44.9191 21.812 47.8265 23.8613 50.82 25.7596C50.9062 25.8027 50.9708 25.6948 50.8846 25.6301C47.9988 23.5808 45.0052 21.6394 42.0762 19.6549C41.9686 19.6117 41.904 19.7412 41.9901 19.8059Z" fill="#768F6E"/>
<path d="M42.5503 22.5238C45.8454 23.7965 48.882 25.5654 51.6818 27.701C51.7464 27.7441 51.8325 27.6363 51.7679 27.5931C49.0328 25.3065 45.9315 23.5377 42.6149 22.2649C42.4426 22.2002 42.378 22.4591 42.5503 22.5238Z" fill="#768F6E"/>
<path d="M42.9383 23.8608C45.0919 25.1766 47.224 26.6219 49.4638 27.8083C49.6146 27.8946 49.7222 27.6789 49.593 27.5926C47.5255 26.1473 45.2642 24.9177 43.1106 23.6019C42.9167 23.4724 42.766 23.7529 42.9383 23.8608Z" fill="#768F6E"/>
<path d="M62.7305 10.6804C63.1612 10.5078 63.2258 10.8314 63.4412 11.1334C63.5919 11.3275 63.7211 11.5217 63.8504 11.7158C64.1303 12.1041 64.3888 12.4924 64.6472 12.9022C65.1641 13.7003 65.6594 14.5201 66.1117 15.383C67.0377 17.1302 67.8346 18.9638 68.5238 20.8189C68.5453 20.8836 68.6745 20.8621 68.6314 20.7974C67.7484 17.9284 66.4347 15.2104 64.7764 12.7081C64.3672 12.0825 63.9365 11.4569 63.4627 10.8529C63.2904 10.6372 62.9673 10.1411 62.6012 10.2921C62.2997 10.4215 62.4289 10.9608 62.752 10.7882C62.8381 10.7667 62.7951 10.6588 62.7305 10.6804Z" fill="#768F6E"/>
<path d="M62.1918 11.6085C65.2285 14.4775 67.4037 18.0584 68.7605 22.0059C68.8035 22.1138 68.9543 22.0706 68.9328 21.9628C67.7698 17.9289 65.4008 14.3265 62.3211 11.4791C62.2349 11.4144 62.1272 11.5438 62.1918 11.6085Z" fill="#768F6E"/>
<path d="M63.484 10.8751C65.1207 12.6008 66.5206 14.4991 67.662 16.5699C68.825 18.6624 69.5357 20.8627 70.2895 23.1276C70.3325 23.2139 70.4402 23.1923 70.4402 23.0845C70.031 20.7764 68.9973 18.4682 67.8558 16.4621C66.6929 14.3912 65.2284 12.4929 63.5701 10.7888C63.527 10.7457 63.4409 10.8319 63.484 10.8751Z" fill="#768F6E"/>
<path d="M62.235 14.3483C64.7978 17.131 66.9946 20.1725 69.2128 23.2141C69.2774 23.3004 69.4067 23.2141 69.342 23.1278C67.4253 19.8921 64.9271 16.9368 62.3642 14.2188C62.2781 14.1325 62.1489 14.262 62.235 14.3483Z" fill="#768F6E"/>
<path d="M61.0937 16.0519C63.5919 17.9286 65.6809 20.1936 67.6192 22.6527C67.6623 22.7175 67.7699 22.6311 67.7269 22.5664C66.004 19.9563 63.6996 17.7345 61.2013 15.8577C61.0937 15.7499 60.986 15.9656 61.0937 16.0519Z" fill="#768F6E"/>
<path d="M61.0932 17.6703C63.1177 19.4823 65.1206 21.3374 67.2096 23.0631C67.2742 23.1278 67.3819 23.02 67.3173 22.9553C65.3575 21.057 63.29 19.2881 61.2655 17.4977C61.1579 17.3899 60.9856 17.5624 61.0932 17.6703Z" fill="#768F6E"/>
<path d="M59.9735 18.8349C62.1487 20.4959 64.2593 22.2432 66.5206 23.8179C66.5852 23.8826 66.6929 23.7532 66.6283 23.6885C64.5393 21.898 62.2995 20.2802 60.1243 18.5976C59.9735 18.5113 59.8443 18.7271 59.9735 18.8349Z" fill="#768F6E"/>
<path d="M105.566 40.1041C99.5361 36.9547 93.3767 34.0425 87.0019 31.6697C86.9373 31.6481 86.8942 31.756 86.9588 31.7991C93.2259 34.4093 99.45 37.1273 105.502 40.212C105.566 40.2335 105.631 40.1473 105.566 40.1041Z" fill="#768F6E"/>
<path d="M105.674 40.9668C100.182 38.6156 94.6903 36.2427 89.1554 33.9562C89.0693 33.913 89.0047 34.064 89.0908 34.1072C94.5826 36.48 100.117 38.7666 105.631 41.0747C105.695 41.1179 105.738 41.01 105.674 40.9668Z" fill="#768F6E"/>
<path d="M124.195 47.87C124.691 47.87 125.186 47.8485 125.681 47.8485C125.767 47.8485 125.789 47.6975 125.703 47.6975C123.42 47.2661 121.116 46.8346 118.833 46.4032C116.636 45.9934 114.418 45.5403 112.199 45.2599C112.113 45.2599 112.092 45.3893 112.178 45.4109C114.396 45.9502 116.657 46.2953 118.897 46.6836C121.137 47.0935 123.42 47.4818 125.681 47.8485C125.681 47.8053 125.681 47.7406 125.681 47.6975C125.186 47.7191 124.691 47.7406 124.195 47.7838C124.131 47.7622 124.131 47.87 124.195 47.87Z" fill="#768F6E"/>
<path d="M123.118 50.998C120.62 49.941 118.057 49.0134 115.451 48.2584C112.953 47.525 110.347 46.8131 107.763 46.5111C107.676 46.5111 107.655 46.6405 107.741 46.6621C110.325 47.3308 112.931 47.8485 115.494 48.6035C118.057 49.3585 120.577 50.2214 123.053 51.2137C123.204 51.2353 123.247 51.0411 123.118 50.998Z" fill="#768F6E"/>
<path d="M121.546 51.9044C119.177 51.1494 116.808 50.3944 114.439 49.6609C112.091 48.9275 109.722 48.0215 107.31 47.4822C107.159 47.4391 107.095 47.6548 107.245 47.7195C109.528 48.6255 112.005 49.2295 114.352 49.9629C116.721 50.6964 119.112 51.4082 121.481 52.1201C121.632 52.1632 121.675 51.9475 121.546 51.9044Z" fill="#768F6E"/>
<path d="M120.47 54.7513C115.796 52.2274 110.8 50.3723 105.566 49.4663C105.459 49.4447 105.416 49.6173 105.523 49.6388C110.649 50.8037 115.667 52.551 120.34 54.9885C120.47 55.0532 120.599 54.8375 120.47 54.7513Z" fill="#768F6E"/>
<path d="M113.255 54.9243C110.864 53.7595 108.215 52.9182 105.545 52.7456C105.437 52.7456 105.415 52.8967 105.523 52.9182C108.172 53.3497 110.692 53.9752 113.125 55.1401C113.276 55.2264 113.405 55.0106 113.255 54.9243Z" fill="#768F6E"/>
<path d="M108.459 13.0347C108.802 16.1809 109.241 19.3198 109.804 22.4396C110.351 25.4831 110.938 28.5429 111.827 31.4927C111.854 31.597 112.034 31.5542 112.007 31.4499C111.42 28.3901 110.688 25.3413 110.129 22.2696C109.57 19.198 109.087 16.1108 108.7 13.0164C108.669 12.864 108.449 12.8905 108.459 13.0347Z" fill="#768F6E"/>
<path d="M112.977 21.3375C114.214 25.7114 115.583 30.0462 117.064 34.3338C117.103 34.4662 117.3 34.3834 117.261 34.251C116.024 29.8771 114.683 25.5304 113.21 21.2229C113.151 21.0823 112.926 21.1769 112.977 21.3375Z" fill="#768F6E"/>
<path d="M115.647 26.5297C116.746 30.2178 118.164 33.9202 119.892 37.3764C119.951 37.517 120.176 37.4224 120.117 37.2818C118.638 33.6712 117.247 30.0731 115.928 26.4115C115.866 26.2228 115.605 26.3491 115.647 26.5297Z" fill="#768F6E"/>
<path d="M118.944 31.4426C119.615 33.5578 120.514 35.6266 121.736 37.4773C121.811 37.578 121.968 37.479 121.92 37.3665C120.828 35.4285 119.86 33.4714 119.189 31.3561C119.138 31.1956 118.893 31.282 118.944 31.4426Z" fill="#768F6E"/>
<path d="M111.403 18.8129C112.846 21.0132 114.224 23.3429 115.861 25.3922C115.947 25.5001 116.119 25.3706 116.054 25.2412C114.741 22.9762 113.104 20.8407 111.596 18.7051C111.51 18.5972 111.338 18.7051 111.403 18.8129Z" fill="#768F6E"/>
<path d="M103.988 9.97252C104.679 11.5833 105.297 13.2576 105.82 14.9393C106.342 16.621 106.684 18.3455 107.207 20.0272C107.246 20.1596 107.434 20.0968 107.415 19.9726C107.221 18.2851 106.675 16.5472 106.148 14.9336C105.594 13.2156 104.955 11.5332 104.232 9.88613C104.162 9.71743 103.917 9.80383 103.988 9.97252Z" fill="#768F6E"/>
<path d="M102.593 9.28593C103.463 11.9953 104.289 14.7564 105.291 17.4266C105.327 17.5109 105.479 17.48 105.452 17.3757C104.694 14.619 103.756 11.9052 102.846 9.17954C102.795 9.01899 102.542 9.12538 102.593 9.28593Z" fill="#768F6E"/>
<path d="M101.011 8.66169C101.052 9.07393 101.073 9.47801 101.122 9.87031C101.133 10.0144 101.353 9.98801 101.35 9.82402C101.329 9.41993 101.308 9.01588 101.275 8.58371C101.284 8.4478 100.988 8.48955 101.011 8.66169Z" fill="#768F6E"/>
<path d="M12.9161 19.2016C10.3533 19.18 7.79047 19.1585 5.24917 19.2016C5.18456 19.2016 5.18456 19.3092 5.24917 19.3092C7.812 19.3738 10.3748 19.3308 12.9161 19.3092C12.9807 19.3092 13.0023 19.2016 12.9161 19.2016Z" fill="#768F6E"/>
<path d="M9.06099 20.3656C8.50105 20.1933 7.9626 20.021 7.40265 19.8487C7.33804 19.8272 7.31652 19.9133 7.38113 19.9348C7.91954 20.1287 8.47949 20.301 9.0179 20.4948C9.10405 20.5164 9.14714 20.3871 9.06099 20.3656Z" fill="#768F6E"/>
<path d="M22.199 37.2354C20.9283 37.4077 19.6361 37.58 18.3655 37.7954C18.3009 37.7954 18.3224 37.9031 18.387 37.9031C19.6792 37.7308 20.9498 37.537 22.242 37.3431C22.2851 37.3216 22.2636 37.2354 22.199 37.2354Z" fill="#768F6E"/>
<path d="M23.8783 38.9609C22.4138 38.9609 20.9493 38.9178 19.4849 38.9825C19.4202 38.9825 19.4202 39.0686 19.4849 39.0686C20.9493 39.1332 22.4138 39.0901 23.8783 39.0901C23.9644 39.0901 23.9644 38.9609 23.8783 38.9609Z" fill="#768F6E"/>
<path d="M40.8706 12.1021C38.0708 11.0683 35.0988 10.4007 32.1052 10.4007C32.0406 10.4007 32.0406 10.4868 32.1052 10.4868C35.0988 10.7237 38.0062 11.1975 40.8275 12.2098C40.9136 12.2744 40.9567 12.1452 40.8706 12.1021Z" fill="#768F6E"/>
<path d="M39.2556 13.6777C37.7911 13.3116 36.3482 12.9239 34.8622 12.6224C34.733 12.6009 34.6899 12.7732 34.8191 12.7947C36.262 13.2254 37.7265 13.57 39.191 13.9577C39.3633 13.9792 39.4279 13.7208 39.2556 13.6777Z" fill="#768F6E"/>
<path d="M71.022 50.0049C68.7822 49.3803 66.0471 49.9187 64.3672 51.5985C64.3026 51.6631 64.3888 51.8139 64.4749 51.7493C66.4347 50.3925 68.5669 49.7249 70.9574 50.1771C71.0866 50.1771 71.1297 50.0264 71.022 50.0049Z" fill="#768F6E"/>
<path d="M72.7016 51.5365C70.0311 50.5673 66.6283 50.8258 64.4101 52.721C64.3024 52.8071 64.4316 52.9579 64.5393 52.8933C67.0375 51.3857 69.8157 50.7827 72.637 51.7734C72.7877 51.8164 72.8523 51.5795 72.7016 51.5365Z" fill="#768F6E"/>
<path d="M70.4833 52.1186C68.5666 51.5586 66.456 51.9248 64.9054 53.217C64.8193 53.3031 64.9485 53.4754 65.0346 53.3892C66.6068 52.2478 68.5235 51.7956 70.4187 52.3124C70.5695 52.3555 70.6126 52.1617 70.4833 52.1186Z" fill="#768F6E"/>
</svg>
