<svg width="144" height="62" viewBox="0 0 144 62" fill="none" xmlns="http://www.w3.org/2000/svg">
<path d="M15.1306 43.3183C16.7673 43.2537 18.4256 43.1245 20.0624 43.2537C20.2562 43.2753 20.2562 43.5552 20.0624 43.5552C18.4256 43.6844 16.7673 43.5552 15.1306 43.4906C15.0229 43.5122 15.0229 43.3399 15.1306 43.3183Z" fill="#768F6E"/>
<path d="M63.8029 36.4575C64.8797 36.0483 65.9566 35.5745 67.098 35.3807C67.3134 35.3376 67.4641 35.6391 67.2488 35.7467C66.2365 36.3498 65.0736 36.6513 63.9752 37.0389C63.5876 37.2112 63.4368 36.6082 63.8029 36.4575Z" fill="#768F6E"/>
<path d="M7.36314 41.3837C9.84811 41.4866 11.9268 40.3107 13.912 38.9633C15.7541 37.721 17.4747 36.2953 19.0865 34.7742C22.4533 31.627 25.2599 27.963 27.5154 23.9184C29.6685 20.0788 31.4555 15.9693 34.4208 12.6367C37.1641 9.55786 40.629 7.16287 44.3877 5.48672C48.7761 3.52986 53.5401 2.49153 58.3259 2.18993C58.8017 2.15859 59.0638 2.91367 58.5409 3.05748C54.2664 4.26863 51.4 7.95706 49.3783 11.7197C47.3565 15.4823 45.7725 19.4622 43.1961 22.8923C38.4825 29.1767 31.6414 33.5576 24.5753 36.8186C20.4623 38.7095 16.1952 40.3371 11.919 41.8286C11.4523 41.9961 11.1748 41.3172 11.6252 41.1098C21.6363 36.4586 30.4739 29.1643 37.361 20.57C39.3015 18.1455 41.097 15.5939 42.8808 13.0705C43.023 12.8492 43.4128 13.0628 43.2787 13.304C40.5902 18.2247 36.9374 22.6074 33.0252 26.5834C29.0932 30.5676 24.7613 34.086 20.0777 37.1423C17.4554 38.8666 14.7035 40.3875 11.919 41.8286C11.8211 41.589 11.7231 41.3494 11.6252 41.1098C19.0784 38.2265 26.6675 35.3343 33.3073 30.8027C36.5656 28.5853 39.5845 25.9531 42.0315 22.8323C44.7439 19.3933 46.3678 15.3971 48.4049 11.5583C50.5526 7.53442 53.5802 3.50047 58.19 2.19888C58.2644 2.49472 58.3306 2.7706 58.4249 3.0583C49.8764 3.54624 40.907 6.42002 35.0435 12.9647C31.9749 16.3862 30.169 20.62 27.9288 24.5884C25.7476 28.4162 23.0035 31.8915 19.8115 34.8974C17.9732 36.6042 15.9545 38.2683 13.8007 39.5448C11.8498 40.6917 9.61705 41.6043 7.32781 41.4681C7.26801 41.4925 7.28701 41.3682 7.36314 41.3837Z" fill="#768F6E"/>
<path d="M8.56219 43.0811C12.9772 43.4262 17.4567 43.7498 21.8932 43.5557C26.2867 43.3615 30.7447 42.6065 34.7074 40.6435C38.8639 38.5727 41.9867 35.0565 45.9279 32.6621C49.6106 30.4187 53.8318 29.3832 58.096 29.0812C63.157 28.7145 68.2181 29.297 73.2361 29.9009C73.6883 29.9441 73.9468 30.5481 73.473 30.8069C63.7385 36.3508 53.5303 42.0025 42.2667 43.5557C39.2731 43.9655 36.1073 44.1812 33.1137 43.7067C32.5753 43.6204 32.7045 42.7575 33.2429 42.7791C35.9781 42.8438 38.6916 42.9085 41.4268 42.585C44.1188 42.2614 46.7893 41.6789 49.3952 40.9024C54.7363 39.3277 59.8189 36.9764 64.7723 34.431C67.5505 32.9857 70.2856 31.4972 73.0207 29.9657C73.1069 30.2677 73.193 30.5697 73.2792 30.8717C64.6646 29.7715 54.9732 28.7145 47.0909 33.1798C43.042 35.4879 39.8977 39.0688 35.7627 41.226C31.9508 43.189 27.6865 44.1165 23.4439 44.3538C18.4474 44.6342 13.5156 44.0734 8.58373 43.3615C8.36837 43.3184 8.41143 43.0595 8.56219 43.0811Z" fill="#768F6E"/>
<path d="M33.2003 41.7868C37.486 40.9887 41.7287 39.8885 45.8852 38.5511C50.1063 37.1921 54.1552 35.4448 58.2256 33.6975C58.6348 33.525 58.9794 34.0858 58.5702 34.3015C54.6721 36.4587 50.4725 38.0118 46.2298 39.3277C41.9871 40.6219 37.6368 41.5064 33.2433 42.0457C33.0926 42.0888 33.0495 41.8299 33.2003 41.7868Z" fill="#768F6E"/>
<path d="M11.8139 46.2523C12.4169 46.1876 13.02 46.0366 13.623 45.9719C14.226 45.9072 14.829 45.864 15.432 45.8209C16.6381 45.713 17.8226 45.562 19.0286 45.4326C21.3761 45.1306 23.7236 44.7423 26.0495 44.2677C28.3324 43.7931 30.5937 43.2323 32.8119 42.6067C35.1379 41.9596 37.3992 41.0752 39.7251 40.4712C40.0697 40.3849 40.3066 40.881 39.962 41.0536C37.8515 42.089 35.547 42.7361 33.2857 43.3833C30.9167 44.052 28.5477 44.6344 26.1356 45.109C23.8097 45.562 21.4838 45.9287 19.1363 46.1876C17.9303 46.317 16.7458 46.4249 15.5397 46.5111C14.9367 46.5543 14.3337 46.5974 13.7306 46.5974C13.0846 46.619 12.4385 46.5112 11.7924 46.4896C11.6632 46.468 11.6847 46.2523 11.8139 46.2523Z" fill="#768F6E"/>
<path d="M17.413 47.3737C23.5509 46.1441 29.8611 44.8498 36.1282 45.8205C38.9064 46.252 41.6631 47.1148 44.1182 48.517C46.4872 49.876 48.447 51.7527 50.2561 53.7588C52.3451 56.0669 54.3265 58.4829 56.9108 60.2949C57.3416 60.5969 57.0831 61.3088 56.5447 61.1794C50.0407 59.5831 43.3644 61.5676 36.7958 60.9636C30.8948 60.4028 25.8338 57.3612 21.505 53.4568C19.0283 51.235 16.81 48.7542 14.6133 46.2735C14.2687 45.8637 14.6133 45.346 15.1086 45.4323C20.4066 46.2951 25.6615 47.5031 30.7872 49.0562C33.3285 49.8328 35.8482 50.6957 38.3465 51.6664C40.8231 52.6155 43.3214 53.6294 45.5827 54.9884C45.8842 55.1609 45.6904 55.7002 45.3458 55.5708C42.8906 54.6432 40.5216 53.5215 38.1095 52.5724C35.6328 51.5801 33.1131 50.6957 30.5718 49.8975C25.4677 48.3012 20.2774 47.1364 14.9794 46.4461C15.0871 46.1657 15.2163 45.8637 15.3455 45.5833C19.2006 49.8112 23.1848 54.2118 28.2028 57.1024C30.7441 58.5692 33.5438 59.5831 36.4728 59.9067C39.7032 60.2734 42.9768 59.9714 46.2072 59.7557C49.7608 59.5184 53.3573 59.4105 56.8462 60.2734C56.717 60.5754 56.5878 60.8558 56.4801 61.1578C52.1082 58.0947 49.4808 53.1764 45.1089 50.1348C40.3278 46.8128 34.2761 45.9931 28.612 46.2735C24.8862 46.4461 21.2034 47.0285 17.5422 47.6325C17.3269 47.5894 17.2838 47.3953 17.413 47.3737Z" fill="#768F6E"/>
<path d="M38.6916 44.9796C43.3865 44.807 48.0599 44.354 52.6903 43.6852C54.9516 43.3617 57.2129 42.9518 59.4527 42.4772C60.5726 42.24 61.6925 41.9811 62.8124 41.7007C63.8892 41.4203 64.9876 41.0751 66.1075 41.0535C66.3228 41.0535 66.3874 41.334 66.2152 41.4418C65.2029 42.0242 64.0184 42.2615 62.8985 42.5204C61.7786 42.7793 60.6588 43.0381 59.5389 43.2754C57.256 43.75 54.9516 44.1383 52.6257 44.4403C47.9953 45.0658 43.3435 45.2815 38.6916 45.1737C38.5839 45.1737 38.5839 45.0011 38.6916 44.9796Z" fill="#768F6E"/>
<path d="M42.5248 44.5698C46.8537 44.8286 51.1825 44.8286 55.4897 44.505C57.6649 44.3325 59.8617 44.0736 62.0153 43.7069C63.049 43.5343 64.0828 43.3618 65.1165 43.146C66.1718 42.9303 67.2271 42.6284 68.3039 42.4989C68.7347 42.4342 68.7562 43.0813 68.3901 43.2108C67.3348 43.6206 66.1934 43.8147 65.095 44.052C64.0613 44.2677 63.0275 44.4619 61.9938 44.6345C59.8401 44.9796 57.6649 45.2169 55.4897 45.3679C51.1394 45.6483 46.789 45.5189 42.4817 44.8934C42.3095 44.8502 42.3525 44.5698 42.5248 44.5698Z" fill="#768F6E"/>
<path d="M66.1291 41.2043C65.9137 41.4632 65.5046 41.3769 65.3538 41.0749C65.1384 40.6435 65.5045 40.2336 65.8061 39.9963C67.4428 38.7236 69.2519 37.6235 70.9748 36.4371C71.1902 36.2861 71.4701 36.4802 71.4701 36.7175C71.5132 38.4216 70.6087 39.9748 69.1442 40.816C69.0581 40.6003 68.9504 40.363 68.8642 40.1473C70.6733 39.8669 72.4824 39.5865 74.2914 39.2845C74.6575 39.2198 75.0021 39.6512 74.6791 39.9532C73.3007 41.2691 71.7501 42.3261 70.0272 43.1242C69.9626 42.8438 69.8764 42.5633 69.8118 42.2829C70.7379 42.3908 71.664 42.5202 72.59 42.628C73.0423 42.6928 73.2577 43.4262 72.6977 43.5125C70.6948 43.7929 68.6704 44.1596 66.646 44.3537C66.1291 44.3969 65.9999 43.5125 66.5168 43.4262C68.5196 43.081 70.5656 42.9085 72.5685 42.628C72.5685 42.93 72.5685 43.232 72.5685 43.534C71.5994 43.4046 70.6518 43.2968 69.6826 43.1674C69.3165 43.1242 69.2304 42.4986 69.5749 42.3476C71.2332 41.6142 72.7623 40.6219 74.0976 39.3708C74.2268 39.5865 74.356 39.8238 74.4852 40.0395C72.6762 40.2983 70.8456 40.5572 69.0365 40.816C68.6704 40.8592 68.3689 40.363 68.7566 40.1473C70.0272 39.457 70.8025 38.1412 70.8025 36.6744C70.9748 36.7606 71.1256 36.8685 71.2978 36.9548C70.3287 37.6019 69.3596 38.249 68.3904 38.8746C67.9382 39.1766 67.4859 39.4571 67.0552 39.7591C66.8398 39.9101 66.6029 40.0611 66.3876 40.1905C66.2583 40.2768 66.1291 40.3415 65.9999 40.4278C65.6984 40.5572 65.6768 40.7297 65.9784 40.9886C66.086 40.967 66.2153 41.0965 66.1291 41.2043Z" fill="#768F6E"/>
<path d="M70.0483 38.7022C69.6176 38.7669 69.4668 38.4649 69.4022 38.0766C69.2945 37.3432 69.9621 36.8039 70.4359 36.3509C71.8143 35.0782 73.3864 33.9996 75.0878 33.1583C78.4475 31.4973 82.3025 30.7639 86.0283 31.0227C88.1389 31.1737 90.271 31.6267 92.2308 32.4249C92.8338 32.6837 92.6185 33.6329 91.9508 33.4387C91.4555 33.2877 91.2186 35.4017 91.1109 35.7253C90.8094 36.6097 90.3356 37.4294 89.7111 38.1197C88.3327 39.716 86.4375 40.7946 84.5208 41.6143C82.3025 42.585 79.9766 43.2537 77.586 43.6204C76.4231 43.793 75.217 43.9224 74.0325 43.9224C72.848 43.9224 71.5343 43.944 70.4144 43.5341C70.156 43.4478 70.0698 42.9948 70.4144 42.9301C71.642 42.7576 72.9126 42.887 74.1618 42.8438C75.4324 42.8007 76.6815 42.6929 77.9091 42.4987C80.3858 42.0889 82.8194 41.3339 85.0807 40.2121C86.9113 39.3061 88.785 38.0766 89.7757 36.2214C90.2279 35.3586 90.2279 34.4095 90.5725 33.525C90.8525 32.8132 91.3909 32.1876 92.2308 32.4249C92.1447 32.77 92.037 33.0936 91.9508 33.4387C88.1604 31.8856 84.0254 31.5404 79.9981 32.4249C78.0168 32.8563 76.1216 33.5681 74.3556 34.5389C73.4295 35.035 72.5681 35.5959 71.7281 36.243C71.362 36.545 70.9959 36.847 70.6513 37.149C70.4575 37.3216 70.2206 37.4726 70.0698 37.6883C70.0052 37.7746 69.6391 38.4433 70.0052 38.4433C70.156 38.4433 70.1991 38.6806 70.0483 38.7022Z" fill="#768F6E"/>
<path d="M76.4453 31.7558C78.5344 30.7419 80.5588 29.5555 82.454 28.1965C84.4138 26.7728 86.0721 25.1118 87.8381 23.4724C88.1181 23.2135 88.4842 23.6018 88.2473 23.8822C86.7397 25.6942 84.7153 27.2042 82.777 28.5416C80.7957 29.9006 78.7067 31.0223 76.4884 31.9283C76.4238 31.9715 76.3592 31.7989 76.4453 31.7558Z" fill="#768F6E"/>
<path d="M82.432 30.5702C83.8965 29.5779 85.2748 28.4347 86.567 27.2267C87.8377 26.0402 88.893 24.7244 90.0129 23.4301C90.2282 23.1928 90.659 23.5164 90.4651 23.7752C88.4622 26.6658 85.5548 29.0171 82.5828 30.8506C82.4105 30.9585 82.2597 30.6781 82.432 30.5702Z" fill="#768F6E"/>
<path d="M87.4068 23.0415C88.2252 21.3805 89.1297 19.7627 90.0127 18.1448C90.185 17.8428 90.5726 18.0154 90.5942 18.2958C90.7234 19.5254 90.5726 20.7549 90.2281 21.9414C90.0558 21.8335 89.8835 21.7472 89.7112 21.6394C90.7234 20.6471 91.9079 19.9137 93.2216 19.4175C93.5231 19.3097 93.7385 19.6764 93.6093 19.9137C93.0063 21.0354 92.231 22.0061 91.2834 22.8258C91.2618 22.6317 91.2403 22.4375 91.2187 22.2434C92.0587 22.6532 92.9416 22.8474 93.8892 22.8258C94.2554 22.8258 94.4061 23.3435 94.0831 23.5376C92.4894 24.3789 90.9172 25.2418 89.3235 26.0831C88.8713 26.3419 88.4621 25.6301 88.9143 25.3928C90.508 24.5515 92.1017 23.7102 93.6954 22.8905C93.76 23.1278 93.8246 23.3651 93.8892 23.6024C92.8124 23.6024 91.8218 23.3651 90.8526 22.8905C90.6588 22.7827 90.6157 22.4591 90.788 22.3081C91.7141 21.5315 92.4463 20.6255 93.0493 19.5685C93.1786 19.7411 93.3078 19.8921 93.437 20.0647C92.2094 20.4961 91.1111 21.1648 90.1635 22.0708C89.9481 22.2865 89.5604 22.0708 89.6466 21.7688C89.9912 20.6255 90.0988 19.4822 89.9912 18.2958C90.185 18.3389 90.3788 18.4037 90.5727 18.4468C89.6466 20.0431 88.742 21.6609 87.7514 23.2141C87.5791 23.4298 87.2991 23.2572 87.4068 23.0415Z" fill="#768F6E"/>
<path d="M90.8954 19.1581C91.7999 15.9008 94.0828 13.3338 96.9471 11.6081C100.307 9.5804 104.226 8.82542 108.103 8.80385C110.558 8.78227 113.013 9.0627 115.425 9.40784C116.028 9.49413 115.835 10.3785 115.296 10.4217C112.819 10.6374 111.312 12.9456 110.407 15.0164C109.438 17.2167 108.728 19.4601 107.177 21.3584C104.614 24.5078 100.651 26.2119 96.7533 26.9454C94.492 27.3768 92.0153 27.6356 89.7109 27.3552C89.0863 27.2905 89.0648 26.3845 89.7109 26.3629C91.843 26.2982 93.9536 26.3414 96.0857 25.9747C98.1532 25.6295 100.199 25.0255 102.073 24.0764C103.86 23.1488 105.497 21.8977 106.703 20.2798C108.189 18.2737 108.792 15.8145 109.912 13.6143C110.989 11.5003 112.819 9.60198 115.296 9.40784C115.253 9.75298 115.21 10.0765 115.167 10.4217C110.214 9.70982 104.937 9.34311 100.135 11.0904C96.2795 12.4925 92.7691 15.3831 91.2615 19.2875C91.1969 19.4817 90.8308 19.3954 90.8954 19.1581Z" fill="#768F6E"/>
<path d="M90.2283 30.8289C93.3726 30.5485 96.4523 29.9445 99.5105 29.1247C100.975 28.7365 102.439 28.2835 103.861 27.7657C105.325 27.248 106.747 26.5793 108.233 26.1263C108.534 26.04 108.685 26.4499 108.427 26.6009C107.113 27.399 105.605 27.9383 104.162 28.4345C102.655 28.9522 101.104 29.4052 99.5535 29.7935C96.4954 30.5269 93.351 30.8936 90.2283 31.0446C90.099 31.0446 90.099 30.8289 90.2283 30.8289Z" fill="#768F6E"/>
<path d="M90.185 32.8344C91.8433 32.5108 93.5446 32.3598 95.2029 32.0578C96.8828 31.7558 98.5411 31.4107 100.199 31.0008C101.815 30.591 103.408 30.138 104.98 29.6203C106.639 29.0594 108.254 28.3907 109.912 27.8946C110.149 27.8298 110.3 28.175 110.085 28.2828C108.62 29.1025 106.983 29.6634 105.411 30.1811C103.753 30.742 102.073 31.2165 100.372 31.6264C98.7134 32.0362 97.0335 32.3598 95.3537 32.6187C93.6523 32.8775 91.9294 33.1364 90.2065 33.0932C90.0773 33.1148 90.0342 32.8776 90.185 32.8344Z" fill="#768F6E"/>
<path d="M111.829 23.3434C117.149 16.4837 126.711 15.815 134.636 16.9799C137.393 17.3897 140.107 17.9937 142.82 18.5761C142.669 18.8566 142.497 19.1154 142.346 19.3958C141.636 18.7271 140.667 18.9428 139.913 19.4174C139.051 19.9351 138.534 20.7117 138.125 21.6177C137.328 23.4081 136.833 25.3927 135.046 26.5144C134.163 27.0753 133.129 27.3557 132.138 27.6146C130.954 27.9166 129.769 28.1754 128.563 28.348C126.151 28.7147 123.717 28.8441 121.284 28.7147C119.97 28.65 118.678 28.499 117.407 28.2833C116.072 28.0676 114.651 27.8518 113.423 27.2478C113.121 27.0968 113.251 26.5576 113.595 26.5791C114.801 26.687 115.964 27.0537 117.149 27.2694C118.419 27.4851 119.733 27.6361 121.025 27.7224C123.567 27.8734 126.151 27.7655 128.671 27.3557C129.92 27.1615 131.147 26.8811 132.354 26.536C133.43 26.234 134.55 25.8673 135.326 25.0044C136.704 23.4944 136.812 21.251 138.104 19.6763C139.267 18.2741 141.507 17.2603 143.014 18.7056C143.38 19.0507 142.993 19.6331 142.54 19.5253C134.313 17.6917 125.16 15.7503 117.256 19.8057C115.361 20.7764 113.595 22.0923 112.152 23.6885C111.959 23.9258 111.635 23.5807 111.829 23.3434Z" fill="#768F6E"/>
<path d="M111.075 20.3882C108.9 21.3589 106.747 22.3943 104.55 23.2787C104.464 23.3003 104.421 23.1709 104.485 23.1277C106.639 22.1139 108.857 21.2295 111.054 20.3019C111.097 20.3019 111.118 20.3882 111.075 20.3882Z" fill="#768F6E"/>
<path d="M91.3268 34.5604C93.6528 34.345 95.9787 34.2373 98.3262 34.2804C99.4891 34.302 100.652 34.345 101.815 34.4312C102.87 34.5173 104.098 34.4743 105.11 34.7973C105.39 34.8834 105.326 35.2926 105.046 35.3142C103.926 35.4003 102.698 35.0988 101.557 35.0127C100.437 34.9265 99.3168 34.8619 98.1969 34.8188C95.9141 34.7327 93.6097 34.7112 91.3268 34.7973C91.1546 34.8188 91.1761 34.5604 91.3268 34.5604Z" fill="#768F6E"/>
<path d="M90.7233 36.1129C92.7262 35.7899 94.7291 35.6822 96.7535 35.8114C97.7442 35.876 98.7133 35.9837 99.6825 36.156C100.609 36.3068 101.707 36.4145 102.482 36.9744C102.676 37.1036 102.59 37.3836 102.375 37.3836C101.492 37.4482 100.609 37.1252 99.7471 36.9529C98.7133 36.7591 97.6796 36.6083 96.6243 36.5437C94.686 36.3929 92.7262 36.436 90.8095 36.6514C90.4864 36.6514 90.4218 36.156 90.7233 36.1129Z" fill="#768F6E"/>
<path d="M104.981 35.0787C107.134 34.7767 109.288 34.5178 111.442 34.2805C111.851 34.2374 111.915 34.7982 111.635 34.9923C110.042 36.0925 108.254 36.9338 106.38 37.4299C106.38 37.1495 106.38 36.8906 106.38 36.6102C106.833 36.7612 107.307 36.9338 107.759 37.0848C108.06 37.1926 108.233 37.7104 107.866 37.8614C107.048 38.2281 106.23 38.5948 105.39 38.9615C105.39 38.7026 105.39 38.4653 105.39 38.2065C106.251 38.6379 106.876 39.3713 107.156 40.2989C107.22 40.5146 107.07 40.795 106.854 40.8382C104.055 41.2912 101.104 40.4068 99.1873 38.2928C98.8212 37.8829 99.4026 37.2789 99.8118 37.6672C101.599 39.4361 104.119 40.3852 106.617 39.9969C106.51 40.1695 106.424 40.3636 106.316 40.5362C106.1 39.8243 105.627 39.3066 104.959 38.9615C104.679 38.832 104.658 38.3359 104.959 38.2065C105.777 37.8398 106.617 37.4946 107.436 37.1279C107.479 37.3868 107.5 37.6456 107.543 37.9045C107.091 37.7535 106.617 37.5809 106.165 37.4299C105.777 37.3005 105.734 36.7181 106.165 36.6102C107.996 36.1356 109.697 35.3806 111.269 34.3236C111.334 34.5609 111.398 34.7982 111.463 35.0355C109.331 35.2081 107.199 35.4022 105.067 35.5317C104.787 35.5317 104.722 35.1218 104.981 35.0787Z" fill="#768F6E"/>
<path d="M107.737 35.1002C111.054 32.8784 115.275 32.5332 119.065 33.6118C122.985 34.7335 126.388 37.2789 129.209 40.1911C129.618 40.6009 129.08 41.3559 128.584 41.0108C126.926 39.8891 124.923 42.1756 123.696 43.0601C122.382 44.0092 120.853 44.6779 119.281 45.0231C116.115 45.7565 112.712 45.3466 109.805 43.8798C108.275 43.1032 106.531 41.9599 105.799 40.3636C105.648 40.0185 106.014 39.7597 106.294 39.9754C107.586 40.9892 108.685 42.1325 110.171 42.9091C111.635 43.6641 113.25 44.1171 114.887 44.2681C118.247 44.5916 121.37 43.6209 123.976 41.5069C125.354 40.3852 127.357 38.8752 129.123 40.0832C128.907 40.3636 128.714 40.6225 128.498 40.9029C125.828 38.1418 122.748 35.7258 119.065 34.5178C115.447 33.3314 111.291 33.4608 107.996 35.4885C107.716 35.6827 107.479 35.2728 107.737 35.1002Z" fill="#768F6E"/>
<path d="M69.3165 30.1815C70.5871 27.7871 71.8578 25.4143 73.1715 23.0414C73.3222 22.7394 73.7745 23.0198 73.6238 23.3002C72.31 25.6731 70.9748 28.0028 69.661 30.3541C69.5103 30.5698 69.1873 30.3972 69.3165 30.1815Z" fill="#768F6E"/>
<path d="M73.0206 24.2062C72.9775 22.6962 72.9344 21.1862 72.9129 19.6762C72.9129 19.2664 73.5374 19.2664 73.559 19.6762C73.6021 20.7332 73.6236 21.7687 73.6666 22.8257C73.4728 22.7609 73.2575 22.7178 73.0636 22.6531C73.6882 21.2725 74.9158 20.3018 76.4018 19.9998C76.5956 19.9566 76.854 20.0861 76.8325 20.3234C76.7248 21.5961 76.2941 22.8041 75.5834 23.8611C74.9588 24.7671 73.9466 25.932 72.8267 26.1692C72.5683 26.2339 72.3314 25.9104 72.5683 25.7162C72.956 25.3495 73.4298 25.1122 73.8389 24.7671C74.2697 24.4004 74.6573 23.9689 75.0019 23.4944C75.6695 22.5452 76.0572 21.4667 76.1864 20.3234C76.3372 20.4312 76.4664 20.5391 76.6171 20.6469C75.2819 20.9058 74.2481 21.7471 73.6666 22.9767C73.5159 23.2787 73.0636 23.1061 73.0421 22.8041C73.0206 21.7471 72.9775 20.7117 72.9559 19.6547C73.1713 19.6547 73.3867 19.6547 73.6021 19.6547C73.6021 21.1647 73.5374 22.6746 73.4944 24.1846C73.4513 24.4866 73.0206 24.4866 73.0206 24.2062Z" fill="#768F6E"/>
<path d="M73.7747 19.9139C73.3655 18.2961 73.7532 16.5056 74.3131 14.9741C74.8946 13.3778 75.7776 11.9325 76.8759 10.6382C79.3095 7.76922 82.6908 5.93567 86.2443 4.83553C88.3979 4.16682 90.6162 3.77853 92.8344 3.4981C93.2651 3.45495 93.3944 4.10208 93.0498 4.27465C91.3484 5.20222 90.9823 7.22993 90.7669 8.99878C90.53 10.8971 90.3577 12.7522 89.6255 14.5426C88.1395 18.1019 85.189 20.863 81.8293 22.6319C79.8695 23.6673 77.7589 24.4008 75.5837 24.7675C75.0453 24.8538 74.8084 24.0341 75.3468 23.9262C79.2234 23.2144 82.9923 21.467 85.8135 18.6628C87.1919 17.2822 88.3333 15.6212 89.0225 13.7876C89.6686 12.0188 89.7547 10.1636 90.0132 8.33007C90.2931 6.45336 90.8531 4.51193 92.6406 3.54122C92.7052 3.80007 92.7914 4.05896 92.856 4.31781C88.2256 4.87867 83.3799 6.08666 79.6541 9.04194C78.0174 10.3362 76.6606 11.9541 75.6914 13.8092C75.1961 14.7584 74.8084 15.7722 74.55 16.8292C74.3131 17.8431 74.27 18.8569 74.1193 19.8924C74.0977 20.0865 73.8177 20.0649 73.7747 19.9139Z" fill="#768F6E"/>
<path d="M76.6173 24.8533C75.7343 25.9534 74.8729 27.1614 73.8391 28.1105C73.6669 28.2831 73.3438 28.0674 73.4946 27.8301C74.2699 26.6221 75.3682 25.5867 76.3158 24.5297C76.5097 24.314 76.7896 24.6375 76.6173 24.8533Z" fill="#768F6E"/>
<path d="M45.3467 45.5407C46.2082 47.1154 48.0388 47.741 49.6755 48.1724C51.8076 48.7333 53.9828 49.1863 56.1365 49.5746C60.6376 50.4159 65.1818 50.9767 69.7475 51.3219C69.6183 51.6239 69.5106 51.9259 69.3814 52.2063C68.8645 51.7533 68.5414 51.1493 68.4338 50.459C68.4122 50.2433 68.4553 49.9629 68.6707 49.8766C71.7073 48.5392 78.7282 46.4036 79.8481 51.2787C80.1927 52.8103 79.7835 54.4713 78.7497 55.6577C77.5867 57.0383 75.6269 57.3834 73.9471 56.8226C71.9011 56.1323 70.2644 54.3419 70.1998 52.12C70.1782 51.667 70.8243 51.6239 70.9535 52.0122C71.535 53.8026 73.0426 55.5067 74.9593 55.8734C76.7468 56.2186 78.2544 55.1184 78.7282 53.3927C79.202 51.7102 78.5344 49.9629 76.7468 49.4883C75.5623 49.1863 74.2701 49.3589 73.0856 49.5746C71.7504 49.8334 70.4366 50.2217 69.2091 50.7826C69.2952 50.5884 69.3598 50.3943 69.446 50.1786C69.5106 50.7179 69.7044 51.1061 70.1136 51.4729C70.4366 51.7749 70.1998 52.4004 69.7475 52.3573C64.9233 51.9906 60.1207 51.2788 55.3827 50.2865C53.186 49.8335 50.9462 49.3589 48.8141 48.6686C47.2204 48.1509 45.6482 47.3312 44.916 45.7565C44.7868 45.5192 45.196 45.2603 45.3467 45.5407Z" fill="#768F6E"/>
<path d="M49.6751 47.7842C53.5948 51.969 58.6127 55.0322 64.1261 56.5853C63.9969 56.6284 63.8461 56.65 63.7169 56.6931C64.7291 55.4851 66.6028 55.1831 67.8949 56.0891C69.2087 57.0167 69.4671 58.7855 68.8425 60.1661C68.7349 60.4034 68.4334 60.425 68.2395 60.3171C66.8612 59.67 65.4829 58.6561 64.7506 57.2756C64.5783 56.9304 64.9875 56.6716 65.246 56.8873C66.3874 57.8149 67.4211 58.7856 68.6918 59.5406C68.498 59.6053 68.2826 59.6484 68.0888 59.6916C68.6703 58.6993 68.3257 57.2971 67.335 56.6931C66.3443 56.0891 65.0521 56.4127 64.3414 57.2756C64.2553 57.3834 64.0615 57.4266 63.9322 57.3834C58.2897 55.744 53.1856 52.573 49.2875 48.1724C49.0075 47.9136 49.4167 47.5037 49.6751 47.7842Z" fill="#768F6E"/>
<path d="M113.595 22.7607C117.407 20.3663 121.908 18.9426 126.388 18.5112C126.474 18.5112 126.495 18.6406 126.409 18.6406C121.887 19.2446 117.687 20.7115 113.66 22.8686C113.595 22.9333 113.531 22.8039 113.595 22.7607Z" fill="#768F6E"/>
<path d="M113.272 23.6669C118.053 21.9196 123.007 20.4743 128.025 19.6977C128.132 19.6762 128.176 19.8272 128.068 19.8487C123.071 20.9273 118.14 22.1353 113.315 23.8394C113.208 23.8826 113.165 23.71 113.272 23.6669Z" fill="#768F6E"/>
<path d="M113.767 24.6374C117.235 23.7098 120.681 22.6744 124.169 21.8547C124.277 21.8331 124.32 21.9841 124.213 22.0273C120.788 23.0843 117.278 23.9256 113.81 24.8531C113.681 24.8963 113.617 24.659 113.767 24.6374Z" fill="#768F6E"/>
<path d="M114.349 24.786C118.011 24.1615 121.65 23.4939 125.333 23.0416C125.441 23.0201 125.462 23.2139 125.355 23.2354C121.736 23.9676 118.075 24.4845 114.414 25.066C114.242 25.066 114.177 24.8076 114.349 24.786Z" fill="#768F6E"/>
<path d="M114.349 25.7362C118.053 25.8439 121.65 25.3485 125.289 24.6163C125.462 24.5732 125.526 24.8316 125.354 24.8747C121.822 25.8869 118.01 26.1238 114.349 25.9515C114.198 25.9515 114.198 25.7362 114.349 25.7362Z" fill="#768F6E"/>
<path d="M113.81 26.7934C118.204 27.0949 122.64 26.7288 126.947 25.8458C127.077 25.8243 127.12 25.9966 126.991 26.0396C122.662 27.0949 118.225 27.3964 113.789 27.0303C113.66 27.0088 113.659 26.7719 113.81 26.7934Z" fill="#768F6E"/>
<path d="M108.254 35.9168C112.087 35.3138 115.942 34.7107 119.797 34.28C119.905 34.2585 119.927 34.4307 119.819 34.4523C115.985 35.0984 112.13 35.5937 108.275 36.1106C108.168 36.1106 108.146 35.9168 108.254 35.9168Z" fill="#768F6E"/>
<path d="M108.297 36.8027C109.999 36.5658 111.678 36.3935 113.38 36.2643C115.146 36.1351 116.976 35.9843 118.721 36.1351C118.85 36.1566 118.85 36.3289 118.721 36.3505C116.998 36.5012 115.232 36.4581 113.509 36.5658C111.765 36.6735 110.042 36.8243 108.319 37.0396C108.19 37.0612 108.168 36.8243 108.297 36.8027Z" fill="#768F6E"/>
<path d="M107.781 37.2568C110.688 37.2353 113.66 37.0415 116.546 37.2568C116.675 37.2568 116.675 37.4506 116.546 37.4721C113.638 37.6875 110.688 37.5152 107.781 37.4721C107.63 37.4937 107.63 37.2568 107.781 37.2568Z" fill="#768F6E"/>
<path d="M108.319 37.7529C110.688 37.9682 113.122 38.0328 115.469 38.442C115.577 38.4636 115.555 38.6574 115.448 38.6574C113.079 38.6143 110.688 38.2267 108.341 38.0113C108.168 37.9898 108.168 37.7529 108.319 37.7529Z" fill="#768F6E"/>
<path d="M107.737 38.5298C110.494 38.8744 113.272 39.1329 115.986 39.6713C116.093 39.6928 116.072 39.8866 115.964 39.8651C113.208 39.6497 110.451 39.1759 107.716 38.7883C107.565 38.7667 107.608 38.5083 107.737 38.5298Z" fill="#768F6E"/>
<path d="M106.122 39.91C108.858 40.1253 111.636 40.2546 114.349 40.6422C114.457 40.6638 114.435 40.8145 114.328 40.8145C111.593 40.7499 108.836 40.4269 106.122 40.2115C105.95 40.19 105.95 39.8884 106.122 39.91Z" fill="#768F6E"/>
<path d="M108.965 40.4925C110.645 41.3324 112.476 41.6554 114.349 41.677C114.478 41.677 114.457 41.8492 114.349 41.8708C112.432 42.1077 110.516 41.6769 108.793 40.8155C108.577 40.7078 108.75 40.4063 108.965 40.4925Z" fill="#768F6E"/>
<path d="M109.417 41.6358C111.356 41.8081 113.294 42.3034 114.995 43.251C115.146 43.3372 115.017 43.531 114.866 43.4664C113.1 42.7126 111.334 42.1527 109.417 41.9804C109.202 41.9373 109.202 41.6143 109.417 41.6358Z" fill="#768F6E"/>
<path d="M71.5344 37.8178C73.2789 36.7392 75.0879 35.7685 76.9616 34.9272C78.7491 34.1291 80.6228 33.3094 82.5395 32.8995C82.6688 32.8779 82.7118 33.0505 82.6041 33.0937C80.6874 33.8271 78.7491 34.4311 76.8754 35.2508C75.0879 36.049 73.3435 36.9765 71.6421 38.012C71.5129 38.0982 71.4052 37.9041 71.5344 37.8178Z" fill="#768F6E"/>
<path d="M71.5995 40.104C74.4638 38.896 77.3282 37.6017 80.2571 36.5231C80.3863 36.48 80.4725 36.6741 80.3433 36.7388C77.5004 38.0547 74.55 39.1548 71.6641 40.3412C71.5133 40.3844 71.4702 40.1687 71.5995 40.104Z" fill="#768F6E"/>
<path d="M72.6976 41.8487C75.4112 41.2026 78.1248 40.5134 80.8599 39.9319C80.9891 39.9104 81.0538 40.1042 80.9245 40.1473C78.2109 40.8364 75.4973 41.4395 72.7622 42.064C72.6115 42.0856 72.5684 41.8702 72.6976 41.8487Z" fill="#768F6E"/>
<path d="M74.3343 42.2384C76.5525 42.1307 78.7277 41.7 80.8814 41.1185C80.9675 41.0969 80.9891 41.2046 80.9245 41.2477C78.8139 42.023 76.5956 42.3892 74.3343 42.4968C74.162 42.4968 74.162 42.2384 74.3343 42.2384Z" fill="#768F6E"/>
<path d="M98.434 13.7013C98.6063 13.6366 99.3601 13.2267 99.2955 13.6582C99.2524 13.8523 98.9078 14.0249 98.7786 14.1112C98.4125 14.37 98.0248 14.6073 97.6587 14.8662C96.5819 15.6212 95.6128 16.5271 94.579 17.3469C93.3945 18.2744 92.3823 19.2883 91.3916 20.4316C91.327 20.5178 91.1762 20.41 91.2409 20.3021C92.4684 18.3391 94.4713 17.0448 96.2158 15.5995C96.8403 15.0818 97.4434 14.6073 98.111 14.1758C98.3694 14.0033 98.6494 13.7876 98.9294 13.6582C99.0155 13.615 99.2093 13.5719 99.0155 13.6582C98.8432 13.7444 98.6279 13.766 98.4556 13.8307C98.391 13.8523 98.3694 13.7444 98.434 13.7013Z" fill="#768F6E"/>
<path d="M100.07 14.2834C98.5412 15.3404 97.0767 16.4621 95.7199 17.7133C94.4062 18.9212 93.2648 20.2802 91.9941 21.5529C91.908 21.6392 91.7357 21.5314 91.8218 21.4235C92.834 19.9351 94.2339 18.5976 95.5692 17.3897C96.9259 16.1601 98.3904 15.0384 99.941 14.0461C100.07 13.9814 100.199 14.1971 100.07 14.2834Z" fill="#768F6E"/>
<path d="M101.793 15.5129C98.7352 17.2602 96 19.5036 93.5664 22.0706C93.4803 22.1569 93.3726 22.0275 93.4372 21.9412C95.7631 19.2448 98.5629 17.0445 101.686 15.3403C101.815 15.2541 101.923 15.4482 101.793 15.5129Z" fill="#768F6E"/>
<path d="M101.191 17.6271C98.4772 19.6764 95.7851 21.7472 93.0285 23.7534C92.9638 23.7965 92.8777 23.6887 92.9423 23.6455C95.6128 21.5315 98.3695 19.5254 101.083 17.4761C101.191 17.4114 101.298 17.5624 101.191 17.6271Z" fill="#768F6E"/>
<path d="M101.17 19.8059C98.2406 21.812 95.3332 23.8613 92.3397 25.7596C92.2535 25.8027 92.1889 25.6948 92.2751 25.6301C95.1609 23.5808 98.1545 21.6394 101.083 19.6549C101.191 19.6117 101.256 19.7412 101.17 19.8059Z" fill="#768F6E"/>
<path d="M100.609 22.5238C97.3141 23.7965 94.2774 25.5654 91.4777 27.701C91.4131 27.7441 91.3269 27.6363 91.3915 27.5931C94.1267 25.3065 97.2279 23.5377 100.545 22.2649C100.717 22.2002 100.781 22.4591 100.609 22.5238Z" fill="#768F6E"/>
<path d="M100.221 23.8608C98.0676 25.1766 95.9354 26.6219 93.6957 27.8083C93.5449 27.8946 93.4372 27.6789 93.5664 27.5926C95.6339 26.1473 97.8953 24.9177 100.049 23.6019C100.243 23.4724 100.393 23.7529 100.221 23.8608Z" fill="#768F6E"/>
<path d="M80.4292 10.6804C79.9985 10.5078 79.9339 10.8314 79.7185 11.1334C79.5678 11.3275 79.4386 11.5217 79.3093 11.7158C79.0294 12.1041 78.7709 12.4924 78.5125 12.9022C77.9956 13.7003 77.5003 14.5201 77.048 15.383C76.122 17.1302 75.3251 18.9638 74.6359 20.8189C74.6144 20.8836 74.4852 20.8621 74.5283 20.7974C75.4113 17.9284 76.725 15.2104 78.3833 12.7081C78.7925 12.0825 79.2232 11.4569 79.697 10.8529C79.8693 10.6372 80.1924 10.1411 80.5585 10.2921C80.86 10.4215 80.7308 10.9608 80.4077 10.7882C80.3216 10.7667 80.3646 10.6588 80.4292 10.6804Z" fill="#768F6E"/>
<path d="M80.9676 11.6085C77.931 14.4775 75.7558 18.0584 74.399 22.0059C74.3559 22.1138 74.2052 22.0706 74.2267 21.9628C75.3897 17.9289 77.7587 14.3265 80.8384 11.4791C80.9245 11.4144 81.0322 11.5438 80.9676 11.6085Z" fill="#768F6E"/>
<path d="M79.6755 10.8751C78.0387 12.6008 76.6389 14.4991 75.4974 16.5699C74.3345 18.6624 73.6238 20.8627 72.87 23.1276C72.8269 23.2139 72.7192 23.1923 72.7192 23.0845C73.1284 20.7764 74.1622 18.4682 75.3036 16.4621C76.4666 14.3912 77.9311 12.4929 79.5894 10.7888C79.6324 10.7457 79.7186 10.8319 79.6755 10.8751Z" fill="#768F6E"/>
<path d="M80.9245 14.3483C78.3616 17.131 76.1649 20.1725 73.9466 23.2141C73.882 23.3004 73.7528 23.2141 73.8174 23.1278C75.7342 19.8921 78.2324 16.9368 80.7952 14.2188C80.8814 14.1325 81.0106 14.262 80.9245 14.3483Z" fill="#768F6E"/>
<path d="M82.066 16.0519C79.5678 17.9286 77.4788 20.1936 75.5405 22.6527C75.4974 22.7175 75.3898 22.6311 75.4328 22.5664C77.1557 19.9563 79.4601 17.7345 81.9584 15.8577C82.066 15.7499 82.1737 15.9656 82.066 16.0519Z" fill="#768F6E"/>
<path d="M82.0662 17.6703C80.0418 19.4823 78.0389 21.3374 75.9499 23.0631C75.8852 23.1278 75.7776 23.02 75.8422 22.9553C77.802 21.057 79.8695 19.2881 81.8939 17.4977C82.0016 17.3899 82.1739 17.5624 82.0662 17.6703Z" fill="#768F6E"/>
<path d="M83.1859 18.8349C81.0107 20.4959 78.9002 22.2432 76.6388 23.8179C76.5742 23.8826 76.4665 23.7532 76.5312 23.6885C78.6202 21.898 80.86 20.2802 83.0352 18.5976C83.1859 18.5113 83.3151 18.7271 83.1859 18.8349Z" fill="#768F6E"/>
<path d="M37.5932 40.1041C43.6234 36.9547 49.7828 34.0425 56.1576 31.6697C56.2222 31.6481 56.2652 31.756 56.2006 31.7991C49.9335 34.4093 43.7095 37.1273 37.6578 40.212C37.5932 40.2335 37.5286 40.1473 37.5932 40.1041Z" fill="#768F6E"/>
<path d="M37.4856 40.9668C42.9774 38.6156 48.4692 36.2427 54.004 33.9562C54.0902 33.913 54.1548 34.064 54.0686 34.1072C48.5768 36.48 43.042 38.7666 37.5286 41.0747C37.464 41.1179 37.421 41.01 37.4856 40.9668Z" fill="#768F6E"/>
<path d="M18.9642 47.87C18.4689 47.87 17.9736 47.8485 17.4782 47.8485C17.3921 47.8485 17.3705 47.6975 17.4567 47.6975C19.7396 47.2661 22.044 46.8346 24.3268 46.4032C26.5235 45.9934 28.7418 45.5403 30.96 45.2599C31.0462 45.2599 31.0677 45.3893 30.9816 45.4109C28.7633 45.9502 26.502 46.2953 24.2622 46.6836C22.0224 47.0935 19.7396 47.4818 17.4782 47.8485C17.4782 47.8053 17.4782 47.7406 17.4782 47.6975C17.9736 47.7191 18.4689 47.7406 18.9642 47.7838C19.0288 47.7622 19.0288 47.87 18.9642 47.87Z" fill="#768F6E"/>
<path d="M20.0414 50.998C22.5396 49.941 25.1024 49.0134 27.7083 48.2584C30.2065 47.525 32.8125 46.8131 35.3968 46.5111C35.483 46.5111 35.5045 46.6405 35.4184 46.6621C32.834 47.3308 30.2281 47.8485 27.6653 48.6035C25.1024 49.3585 22.5827 50.2214 20.106 51.2137C19.9552 51.2353 19.9121 51.0411 20.0414 50.998Z" fill="#768F6E"/>
<path d="M21.6136 51.9044C23.9826 51.1494 26.3516 50.3944 28.7206 49.6609C31.0681 48.9275 33.4371 48.0215 35.8492 47.4822C36 47.4391 36.0646 47.6548 35.9138 47.7195C33.631 48.6255 31.1543 49.2295 28.8068 49.9629C26.4378 50.6964 24.0472 51.4082 21.6782 52.1201C21.5275 52.1632 21.4844 51.9475 21.6136 51.9044Z" fill="#768F6E"/>
<path d="M22.6898 54.7513C27.3632 52.2274 32.3596 50.3723 37.593 49.4663C37.7007 49.4447 37.7437 49.6173 37.636 49.6388C32.5104 50.8037 27.4924 52.551 22.819 54.9885C22.6897 55.0532 22.5605 54.8375 22.6898 54.7513Z" fill="#768F6E"/>
<path d="M29.9046 54.9243C32.2951 53.7595 34.9441 52.9182 37.6146 52.7456C37.7223 52.7456 37.7439 52.8967 37.6362 52.9182C34.9872 53.3497 32.4674 53.9752 30.0338 55.1401C29.8831 55.2264 29.7538 55.0106 29.9046 54.9243Z" fill="#768F6E"/>
<path d="M34.7001 13.0347C34.3574 16.1809 33.9187 19.3198 33.3559 22.4396C32.8084 25.4831 32.2211 28.5429 31.3328 31.4927C31.3056 31.597 31.1253 31.5542 31.1525 31.4499C31.7398 28.3901 32.4712 25.3413 33.0305 22.2696C33.5897 19.198 34.0729 16.1108 34.4599 13.0164C34.4907 12.864 34.7109 12.8905 34.7001 13.0347Z" fill="#768F6E"/>
<path d="M30.1825 21.3375C28.9457 25.7114 27.5766 30.0462 26.0951 34.3338C26.0562 34.4662 25.8595 34.3834 25.8984 34.251C27.1352 29.8771 28.4762 25.5304 29.9495 21.2229C30.0084 21.0823 30.2332 21.1769 30.1825 21.3375Z" fill="#768F6E"/>
<path d="M27.5122 26.5297C26.4139 30.2178 24.9957 33.9202 23.2674 37.3764C23.2086 37.517 22.9838 37.4224 23.0427 37.2818C24.5216 33.6712 25.9127 30.0731 27.2312 26.4115C27.2937 26.2228 27.5547 26.3491 27.5122 26.5297Z" fill="#768F6E"/>
<path d="M24.2151 31.4426C23.5442 33.5578 22.6448 35.6266 21.4237 37.4773C21.3485 37.578 21.1917 37.479 21.2388 37.3665C22.3312 35.4285 23.2995 33.4714 23.9704 31.3561C24.0211 31.1956 24.2659 31.282 24.2151 31.4426Z" fill="#768F6E"/>
<path d="M31.7569 18.8129C30.3139 21.0132 28.9356 23.3429 27.2988 25.3922C27.2127 25.5001 27.0404 25.3706 27.105 25.2412C28.4187 22.9762 30.0555 20.8407 31.563 18.7051C31.6492 18.5972 31.8215 18.7051 31.7569 18.8129Z" fill="#768F6E"/>
<path d="M39.172 9.97252C38.481 11.5833 37.8624 13.2576 37.34 14.9393C36.8175 16.621 36.4754 18.3455 35.953 20.0272C35.914 20.1596 35.7255 20.0968 35.7445 19.9726C35.9389 18.2851 36.4849 16.5472 37.0119 14.9336C37.5661 13.2156 38.2046 11.5332 38.9273 9.88613C38.998 9.71743 39.2427 9.80383 39.172 9.97252Z" fill="#768F6E"/>
<path d="M40.5665 9.28593C39.6963 11.9953 38.8706 14.7564 37.868 17.4266C37.8327 17.5109 37.6805 17.48 37.7076 17.3757C38.4654 14.619 39.4036 11.9052 40.3136 9.17954C40.3644 9.01899 40.6172 9.12538 40.5665 9.28593Z" fill="#768F6E"/>
<path d="M42.1489 8.66169C42.1081 9.07393 42.0871 9.47801 42.038 9.87031C42.0271 10.0144 41.807 9.98801 41.8097 9.82402C41.8307 9.41993 41.8517 9.01588 41.8844 8.58371C41.8754 8.4478 42.1717 8.48955 42.1489 8.66169Z" fill="#768F6E"/>
<path d="M130.243 19.2016C132.806 19.18 135.369 19.1585 137.91 19.2016C137.975 19.2016 137.975 19.3092 137.91 19.3092C135.347 19.3738 132.785 19.3308 130.243 19.3092C130.179 19.3092 130.157 19.2016 130.243 19.2016Z" fill="#768F6E"/>
<path d="M134.099 20.3656C134.659 20.1933 135.197 20.021 135.757 19.8487C135.822 19.8272 135.843 19.9133 135.779 19.9348C135.24 20.1287 134.68 20.301 134.142 20.4948C134.056 20.5164 134.013 20.3871 134.099 20.3656Z" fill="#768F6E"/>
<path d="M120.96 37.2354C122.231 37.4077 123.523 37.58 124.794 37.7954C124.859 37.7954 124.837 37.9031 124.772 37.9031C123.48 37.7308 122.21 37.537 120.917 37.3431C120.874 37.3216 120.896 37.2354 120.96 37.2354Z" fill="#768F6E"/>
<path d="M119.281 38.9609C120.746 38.9609 122.21 38.9178 123.675 38.9825C123.739 38.9825 123.739 39.0686 123.675 39.0686C122.21 39.1332 120.746 39.0901 119.281 39.0901C119.195 39.0901 119.195 38.9609 119.281 38.9609Z" fill="#768F6E"/>
<path d="M102.289 12.1021C105.088 11.0683 108.06 10.4007 111.054 10.4007C111.119 10.4007 111.119 10.4868 111.054 10.4868C108.06 10.7237 105.153 11.1975 102.332 12.2098C102.246 12.2744 102.203 12.1452 102.289 12.1021Z" fill="#768F6E"/>
<path d="M103.904 13.6777C105.369 13.3116 106.812 12.9239 108.298 12.6224C108.427 12.6009 108.47 12.7732 108.341 12.7947C106.898 13.2254 105.433 13.57 103.969 13.9577C103.796 13.9792 103.732 13.7208 103.904 13.6777Z" fill="#768F6E"/>
<path d="M72.1372 50.0049C74.377 49.3803 77.1121 49.9187 78.792 51.5985C78.8566 51.6631 78.7704 51.8139 78.6843 51.7493C76.7245 50.3925 74.5923 49.7249 72.2018 50.1771C72.0726 50.1771 72.0295 50.0264 72.1372 50.0049Z" fill="#768F6E"/>
<path d="M70.4579 51.5365C73.1284 50.5673 76.5311 50.8258 78.7494 52.721C78.8571 52.8071 78.7279 52.9579 78.6202 52.8933C76.122 51.3857 73.3437 50.7827 70.5225 51.7734C70.3717 51.8164 70.3071 51.5795 70.4579 51.5365Z" fill="#768F6E"/>
<path d="M72.6761 52.1186C74.5929 51.5586 76.7034 51.9248 78.2541 53.217C78.3402 53.3031 78.211 53.4754 78.1248 53.3892C76.5527 52.2478 74.6359 51.7956 72.7407 52.3124C72.59 52.3555 72.5469 52.1617 72.6761 52.1186Z" fill="#768F6E"/>
</svg>
